{"glyphs":{"0":{"ha":1001,"x_min":157,"x_max":1114,"o":"m 1107 399 q 1056 261 1097 332 q 952 132 1014 190 q 813 37 890 74 q 651 0 735 0 l 513 0 q 371 13 436 0 q 258 55 306 25 q 184 136 211 85 q 157 265 157 188 q 158 300 157 282 q 163 338 160 318 q 213 475 172 404 q 313 604 253 546 q 444 699 372 663 q 590 736 517 736 l 774 736 q 911 722 849 736 q 1019 676 974 707 q 1089 594 1064 644 q 1114 475 1114 544 q 1112 438 1114 457 q 1107 399 1110 419 m 424 357 q 422 347 422 356 l 422 339 q 432 287 422 314 q 458 238 442 260 q 497 201 475 215 q 544 188 519 188 l 636 188 q 678 199 653 188 q 731 231 704 211 q 783 274 758 250 q 819 322 807 299 q 835 353 832 342 l 840 367 q 843 379 843 381 q 845 402 844 390 q 846 426 846 414 q 842 471 846 449 q 825 510 838 493 q 791 538 813 528 q 735 549 769 549 l 622 549 q 574 537 600 549 q 524 506 549 525 q 477 462 499 486 q 443 414 456 438 q 431 383 436 397 q 424 357 425 368 "},"1":{"ha":451,"x_min":146,"x_max":681,"o":"m 413 0 l 146 0 l 346 549 l 232 549 l 232 550 q 252 581 233 556 q 297 636 271 606 q 349 695 322 667 q 396 736 376 724 l 681 736 l 413 0 "},"2":{"ha":918,"x_min":78,"x_max":1101,"o":"m 368 196 l 394 242 q 414 262 403 253 q 436 271 425 271 l 714 271 q 803 292 754 271 q 901 345 853 313 q 990 416 949 378 q 1056 489 1031 454 q 1090 558 1078 521 q 1101 631 1101 594 q 1081 706 1101 675 q 1018 736 1061 736 l 404 736 q 363 694 385 717 q 317 646 340 671 q 274 595 294 621 q 240 547 254 569 l 793 547 q 806 531 806 547 q 792 493 806 507 l 786 486 q 778 480 786 485 q 764 472 769 475 q 738 459 754 467 q 719 451 721 451 l 456 451 q 372 430 419 451 q 279 376 325 408 q 193 306 233 343 q 131 238 153 268 q 92 163 106 201 q 78 89 78 124 q 97 26 78 51 q 156 0 115 0 l 788 0 q 837 53 810 21 q 888 114 864 85 q 929 165 913 143 q 946 186 946 186 l 383 186 q 368 196 368 186 "},"3":{"ha":932,"x_min":39,"x_max":1060,"o":"m 181 189 l 633 189 q 640 192 633 189 q 656 201 647 196 q 672 210 664 206 q 685 219 681 215 q 687 222 685 219 q 690 226 689 225 l 693 233 q 697 247 696 238 q 697 267 697 257 l 322 267 l 536 454 l 758 454 q 765 460 760 454 q 775 475 769 467 q 785 491 781 483 q 792 503 790 499 l 794 510 q 792 514 793 511 q 792 517 792 517 q 777 535 788 524 q 764 547 767 547 l 244 547 q 308 644 275 596 q 385 736 342 692 l 919 736 q 982 715 956 736 q 1026 662 1008 693 q 1051 595 1043 631 q 1060 532 1060 560 l 1060 529 q 1051 476 1060 503 q 1026 424 1042 449 q 992 382 1011 400 q 953 356 972 364 q 972 329 958 344 q 988 286 986 314 q 980 241 988 267 q 965 197 972 215 l 960 182 q 919 99 939 133 q 867 42 899 64 q 784 10 835 21 q 651 0 733 0 l 39 0 q 108 101 75 53 q 181 189 142 149 "},"4":{"ha":908,"x_min":135,"x_max":1138,"o":"m 869 0 l 1138 736 l 871 736 l 767 451 l 467 451 l 571 736 l 307 736 l 135 264 l 608 264 l 751 408 l 603 0 l 869 0 "},"5":{"ha":908,"x_min":44,"x_max":1135,"o":"m 661 186 q 689 242 689 214 q 685 262 689 253 q 669 271 681 271 l 392 271 q 330 288 363 271 q 270 333 297 306 q 225 396 243 361 q 207 464 207 431 q 208 477 207 471 q 210 490 208 483 l 300 736 l 1135 736 q 1062 642 1103 689 q 971 547 1021 594 l 494 547 l 475 493 l 475 486 q 481 480 475 485 q 489 472 486 475 q 505 459 494 467 q 517 451 515 451 l 781 451 q 847 430 817 451 q 901 376 878 408 q 936 307 924 344 q 949 239 949 269 l 949 233 q 932 156 949 197 q 888 81 915 115 q 826 23 861 46 q 753 0 790 0 l 44 0 q 73 44 51 14 q 119 106 94 75 q 164 162 143 138 q 189 186 185 186 l 661 186 "},"6":{"ha":883,"x_min":176,"x_max":1113,"o":"m 950 271 q 900 174 932 222 q 826 86 868 125 q 736 24 785 47 q 636 0 688 0 q 468 15 550 0 q 321 69 386 31 q 216 172 256 107 q 176 338 176 238 l 176 340 q 206 478 176 407 q 285 606 235 549 q 400 699 335 663 q 539 736 465 736 l 1113 736 q 1031 637 1072 683 q 942 549 990 590 l 581 549 q 517 522 546 549 q 467 458 488 494 l 844 458 q 933 415 907 446 q 958 335 958 383 q 950 271 958 306 m 638 282 l 467 282 l 475 269 q 515 213 494 238 q 564 189 535 189 l 644 189 l 679 242 q 669 266 675 254 q 638 282 664 278 "},"7":{"ha":849,"x_min":78,"x_max":1092,"o":"m 78 0 l 606 549 l 232 549 l 232 550 q 252 581 233 556 q 297 636 271 606 q 349 695 322 667 q 396 736 376 724 l 1092 736 l 358 0 l 78 0 "},"8":{"ha":975,"x_min":85,"x_max":1103,"o":"m 240 546 l 249 568 q 275 626 258 596 q 324 680 292 656 q 410 720 356 704 q 549 736 464 736 l 963 736 q 1024 717 997 736 q 1068 669 1050 697 q 1094 607 1086 640 q 1103 544 1103 574 l 1103 525 q 1090 471 1103 501 q 1051 400 1076 432 q 996 356 1025 368 q 1015 329 1001 344 q 1031 286 1029 314 l 1031 282 q 1025 247 1031 267 q 1013 210 1019 226 l 1003 182 q 962 99 982 133 q 910 42 942 64 q 827 10 878 21 q 694 0 776 0 l 281 0 q 186 5 224 0 q 126 20 149 10 q 94 47 103 31 q 85 85 85 63 q 90 128 85 104 q 106 182 96 153 l 113 203 q 131 245 119 221 q 157 288 143 269 q 203 331 179 315 q 242 357 228 346 q 220 385 226 365 q 214 431 214 406 q 222 494 214 463 q 240 546 229 525 m 515 517 l 438 300 l 624 461 l 806 461 q 821 478 810 461 q 835 503 832 494 l 835 517 q 821 535 831 524 q 807 547 811 546 l 565 547 q 540 540 558 547 q 515 517 522 532 m 435 189 l 676 189 q 683 192 676 189 q 699 201 690 196 q 715 210 707 206 q 728 219 724 215 q 730 222 728 219 q 733 226 732 225 l 736 233 q 744 255 739 238 q 750 282 750 272 l 429 282 l 410 231 l 411 228 q 410 226 411 226 q 410 224 410 225 l 408 219 q 422 201 413 213 q 435 189 432 189 "},"9":{"ha":883,"x_min":39,"x_max":974,"o":"m 201 465 q 251 563 219 514 q 325 649 283 611 q 415 712 367 688 q 515 736 464 736 l 526 736 q 753 720 665 736 q 889 666 840 704 q 956 563 938 628 q 974 399 974 497 l 974 394 q 944 258 974 328 q 864 131 914 188 q 749 37 814 74 q 613 0 683 0 l 39 0 q 120 99 79 53 q 210 188 161 146 l 571 188 q 635 215 606 188 q 685 278 664 242 l 307 278 q 219 322 244 290 q 193 401 193 353 q 201 465 193 429 m 514 454 l 685 454 l 678 464 q 638 522 658 496 q 586 547 617 547 l 506 547 l 472 494 q 481 470 476 482 q 514 454 486 458 "}," ":{"ha":388,"x_min":0,"x_max":0,"o":""},"!":{"ha":344,"x_min":93,"x_max":574,"o":"m 125 238 l 307 736 l 574 736 l 392 238 l 125 238 m 99 97 q 156 167 115 138 q 240 196 196 196 q 297 177 276 196 q 317 131 317 158 q 300 78 317 107 q 254 28 283 49 q 214 8 236 15 q 169 0 192 0 q 113 18 133 0 q 93 65 93 36 q 99 97 93 86 "},"\"":{"ha":453,"x_min":253,"x_max":656,"o":"m 458 597 q 454 550 454 578 q 462 497 454 522 q 492 472 469 472 l 503 472 q 532 485 513 472 q 571 517 551 499 q 608 558 590 536 q 632 597 625 579 l 650 649 q 656 681 656 660 q 640 722 656 706 q 594 738 624 738 q 524 711 558 738 q 476 649 490 685 l 458 597 m 257 597 q 253 550 253 578 q 260 497 253 522 q 290 472 268 472 l 301 472 q 331 485 311 472 q 369 517 350 499 q 406 558 389 536 q 431 597 424 579 l 449 649 q 454 681 454 660 q 438 722 454 706 q 393 738 422 738 q 323 711 357 738 q 275 649 289 685 l 257 597 "},"#":{"ha":1038,"x_min":76,"x_max":1226,"o":"m 200 0 l 467 0 l 518 142 l 625 142 l 574 0 l 840 0 l 892 142 l 933 142 l 1132 329 l 960 329 l 986 401 l 1028 401 l 1226 589 l 1054 589 l 1108 736 l 842 736 l 788 589 l 681 589 l 735 736 l 468 736 l 414 589 l 369 589 l 171 401 l 346 401 l 319 329 l 275 329 l 76 142 l 251 142 l 200 0 m 719 401 l 693 329 l 586 329 l 613 401 l 719 401 "},"$":{"ha":917,"x_min":54,"x_max":1144,"o":"m 306 -196 l 481 -196 l 551 0 l 763 0 q 835 23 800 0 q 898 81 871 46 q 942 156 925 115 q 958 233 958 197 l 958 242 q 949 311 958 274 q 919 381 939 349 q 867 435 899 414 q 790 457 835 457 l 718 457 l 750 547 l 981 547 q 1072 642 1031 594 q 1144 736 1113 689 l 819 736 l 889 929 l 714 929 l 644 736 l 436 736 q 358 710 397 736 q 288 647 319 685 q 238 566 257 608 q 218 490 218 524 l 218 410 q 221 359 218 383 q 233 317 224 335 q 261 288 243 299 q 310 276 279 276 l 476 276 l 444 186 l 199 186 q 174 162 194 186 q 128 106 153 138 q 83 44 104 75 q 54 0 61 14 l 376 0 l 306 -196 m 575 547 l 543 457 l 526 457 q 515 462 525 457 q 499 472 504 467 q 490 480 496 475 q 485 486 485 485 l 485 493 q 496 526 485 506 q 522 547 507 547 l 575 547 m 699 242 l 699 225 q 695 199 699 211 q 671 186 692 186 l 619 186 l 651 276 l 679 276 q 694 265 690 276 q 699 242 699 253 "},"%":{"ha":1094,"x_min":118,"x_max":1249,"o":"m 118 0 l 1008 736 l 1249 736 l 356 0 l 118 0 m 710 567 q 707 550 710 561 l 701 535 q 668 474 690 504 q 617 421 646 444 q 553 383 588 397 q 482 368 518 368 l 413 368 q 335 376 371 368 q 276 402 300 383 q 241 453 251 421 q 238 536 231 486 q 246 569 239 553 q 278 630 257 600 q 328 683 300 660 q 389 722 357 707 q 453 736 421 736 l 544 736 q 621 727 586 736 q 678 697 656 718 q 709 644 700 676 q 710 567 718 613 m 390 551 q 401 508 386 531 q 436 485 417 485 l 472 485 q 488 490 478 485 q 508 501 497 494 q 528 518 518 508 q 543 538 538 528 q 546 543 544 540 q 549 550 547 546 l 553 560 q 554 581 554 564 q 544 613 554 600 q 510 626 535 626 l 468 626 q 430 610 450 626 q 399 574 410 593 l 390 551 m 1132 199 q 1131 193 1132 197 q 1129 182 1131 189 l 1124 167 q 1090 106 1113 136 q 1039 53 1068 76 q 975 15 1010 29 q 904 0 940 0 l 835 0 q 758 8 793 0 q 698 34 722 15 q 663 85 674 53 q 660 168 653 118 q 668 201 661 185 q 701 262 679 232 q 750 315 722 292 q 810 353 778 339 q 874 368 842 368 l 965 368 q 1099 329 1050 368 q 1132 199 1147 290 m 813 183 q 824 140 808 163 q 858 117 839 117 l 894 117 q 930 133 907 117 q 964 169 953 150 q 971 182 969 176 l 974 192 q 975 213 975 196 q 967 245 975 232 q 932 258 958 258 l 890 258 q 852 242 872 258 q 821 206 832 225 l 813 183 "},"&":{"ha":1111,"x_min":85,"x_max":1254,"o":"m 1056 274 l 1254 461 l 624 461 l 438 300 l 515 517 q 540 540 522 532 q 565 547 558 547 l 901 547 q 985 640 947 593 q 1057 736 1024 688 l 549 736 q 410 720 464 736 q 324 680 356 704 q 275 626 292 656 q 249 568 258 596 l 240 546 q 222 494 229 525 q 214 431 214 463 q 220 385 214 406 q 242 357 226 365 q 203 331 228 346 q 157 288 179 315 q 131 245 143 269 q 113 203 119 221 l 106 182 q 90 128 96 153 q 85 85 85 104 q 94 47 85 63 q 126 20 103 31 q 186 5 149 10 q 281 0 224 0 l 675 0 q 808 10 757 0 q 890 42 858 21 q 942 99 922 64 q 983 182 963 133 l 990 203 q 1003 237 997 218 q 1011 274 1008 256 l 1056 274 m 657 189 l 435 189 q 422 201 432 189 q 408 219 413 213 l 429 282 l 731 282 q 725 255 731 272 q 717 233 719 238 l 714 226 q 710 222 713 225 q 708 219 708 219 q 696 210 704 215 q 679 201 688 206 q 664 192 671 196 q 657 189 657 189 "},"'":{"ha":251,"x_min":253,"x_max":454,"o":"m 257 597 q 253 550 253 578 q 260 497 253 522 q 290 472 268 472 l 301 472 q 331 485 311 472 q 369 517 350 499 q 406 558 389 536 q 431 597 424 579 l 449 649 q 454 681 454 660 q 438 722 454 706 q 393 738 422 738 q 323 711 357 738 q 275 649 289 685 l 257 597 "},"(":{"ha":569,"x_min":165,"x_max":799,"o":"m 165 286 l 165 288 q 181 385 165 332 q 225 491 197 438 q 291 594 253 544 q 373 681 329 643 q 465 742 417 719 q 563 765 514 765 l 799 765 q 717 666 758 713 q 626 578 676 619 l 603 578 q 557 561 579 578 q 515 519 535 544 q 479 466 494 494 q 456 414 464 438 l 444 381 q 430 338 438 361 q 422 307 422 315 l 422 306 q 441 250 422 278 q 483 197 460 222 q 531 151 507 172 q 564 118 554 131 l 564 110 q 558 78 564 97 q 542 38 551 60 q 522 -8 533 15 q 501 -51 511 -31 q 444 -39 478 -47 q 372 -15 410 -31 q 298 24 335 0 q 231 83 261 47 q 183 169 201 119 q 165 283 165 218 l 165 286 "},")":{"ha":568,"x_min":31,"x_max":663,"o":"m 663 428 l 663 426 q 647 329 663 382 q 603 223 631 276 q 538 120 575 169 q 456 33 500 71 q 363 -28 411 -6 q 267 -51 315 -51 l 31 -51 q 111 48 71 1 q 201 136 151 94 l 225 136 q 269 153 247 136 q 312 194 292 169 q 348 248 332 219 q 372 300 364 276 l 381 324 q 397 374 389 347 q 406 408 404 400 q 391 462 406 435 q 355 514 376 489 q 309 559 333 539 q 264 592 285 579 l 264 600 q 269 631 264 611 q 285 675 275 651 q 306 722 294 699 q 328 765 317 746 q 385 753 351 761 q 456 730 418 744 q 530 691 493 715 q 596 631 567 667 q 644 547 625 596 q 663 432 663 497 l 663 428 "},"*":{"ha":342,"x_min":268,"x_max":567,"o":"m 401 553 l 522 626 l 489 675 l 567 688 l 567 794 l 494 763 l 528 826 l 407 826 l 390 763 l 350 797 l 276 690 l 335 675 l 268 629 l 333 553 l 392 619 l 401 553 "},"+":{"ha":640,"x_min":124,"x_max":782,"o":"m 281 136 l 468 136 l 517 271 l 583 271 l 782 458 l 585 458 l 638 601 l 450 601 l 397 458 l 322 458 l 124 271 l 329 271 l 281 136 "},",":{"ha":289,"x_min":51,"x_max":292,"o":"m 53 39 q 51 19 51 35 l 51 -1 q 53 -35 51 -18 q 60 -67 56 -53 q 75 -91 65 -82 q 100 -100 85 -100 l 113 -100 q 148 -85 125 -100 q 194 -50 171 -71 q 238 -5 218 -29 q 264 39 257 19 l 285 97 q 292 131 292 121 q 272 177 292 158 q 215 196 251 196 q 131 167 171 196 q 74 97 90 138 l 53 39 "},"-":{"ha":501,"x_min":124,"x_max":643,"o":"m 444 271 l 124 271 l 322 458 l 643 458 l 444 271 "},".":{"ha":289,"x_min":68,"x_max":292,"o":"m 74 97 q 131 167 90 138 q 215 196 171 196 q 272 177 251 196 q 292 131 292 158 q 275 78 292 107 q 229 28 258 49 q 189 8 211 15 q 144 0 167 0 q 88 18 108 0 q 68 65 68 36 q 74 97 68 86 "},"/":{"ha":913,"x_min":25,"x_max":1156,"o":"m 321 0 l 1156 736 l 858 736 l 25 0 l 321 0 "},":":{"ha":290,"x_min":69,"x_max":424,"o":"m 75 97 q 132 167 92 138 q 217 196 172 196 q 273 177 253 196 q 293 131 293 158 q 276 78 293 107 q 231 28 260 49 q 190 8 213 15 q 146 0 168 0 q 90 18 110 0 q 69 65 69 36 q 75 97 69 86 m 206 460 q 263 529 222 500 q 347 558 303 558 q 403 540 383 558 q 424 493 424 521 q 407 440 424 469 q 361 390 390 411 q 321 370 343 378 q 276 363 299 363 q 220 381 240 363 q 200 428 200 399 q 206 460 200 449 "},";":{"ha":290,"x_min":51,"x_max":424,"o":"m 206 460 q 200 428 200 449 q 220 381 200 399 q 276 363 240 363 q 342 379 310 363 q 394 421 374 396 q 417 460 410 439 q 424 493 424 481 q 403 540 424 521 q 347 558 383 558 q 263 529 303 558 q 206 460 222 500 m 53 39 q 51 19 51 35 l 51 -1 q 53 -35 51 -18 q 60 -67 56 -53 q 75 -91 65 -82 q 100 -100 85 -100 l 113 -100 q 148 -85 125 -100 q 194 -50 171 -71 q 238 -5 218 -29 q 264 39 257 19 l 285 97 q 292 131 292 121 q 272 177 292 158 q 215 196 251 196 q 131 167 171 196 q 74 97 90 138 l 53 39 "},"<":{"ha":631,"x_min":160,"x_max":872,"o":"m 310 0 l 160 369 l 575 736 l 872 736 l 457 369 l 606 0 l 310 0 "},"=":{"ha":600,"x_min":78,"x_max":790,"o":"m 592 401 l 172 401 l 371 589 l 790 589 l 592 401 m 497 142 l 78 142 l 276 329 l 696 329 l 497 142 "},">":{"ha":631,"x_min":25,"x_max":740,"o":"m 321 0 l 740 369 l 592 736 l 294 736 l 443 369 l 25 0 l 321 0 "},"?":{"ha":908,"x_min":122,"x_max":1092,"o":"m 193 236 q 255 306 215 268 q 340 376 294 343 q 433 430 386 408 q 517 451 481 451 l 710 451 q 728 459 711 451 q 754 472 744 467 q 768 480 760 475 q 776 486 776 485 l 782 493 q 796 531 796 507 q 783 547 796 547 l 231 547 q 265 595 244 569 q 308 646 285 621 q 353 694 331 671 q 394 736 375 717 l 1008 736 q 1072 705 1053 736 q 1092 629 1092 674 q 1080 556 1092 593 q 1046 489 1068 519 q 980 416 1021 454 q 891 345 939 378 q 794 292 843 313 q 704 271 744 271 l 497 271 q 432 256 453 271 q 408 238 411 242 l 408 236 l 193 236 m 128 97 q 185 167 144 138 q 269 196 225 196 q 326 177 306 196 q 346 131 346 158 q 329 78 346 107 q 283 28 313 49 q 243 8 265 15 q 199 0 221 0 q 142 18 163 0 q 122 65 122 36 q 128 97 122 86 "},"@":{"ha":1043,"x_min":164,"x_max":1164,"o":"m 515 382 q 514 365 514 378 l 514 350 q 534 272 514 304 q 613 233 554 240 l 849 233 q 1037 264 963 233 q 1144 386 1111 294 q 1164 500 1164 444 l 1164 504 q 1144 613 1164 569 q 1094 685 1125 657 q 1023 727 1063 713 q 944 749 983 742 q 871 760 906 757 q 813 767 836 763 l 561 767 q 448 735 504 767 q 342 653 392 704 q 252 540 292 603 q 190 415 213 478 q 164 286 164 346 l 164 283 q 182 169 164 218 q 230 83 200 119 q 297 24 260 47 q 371 -15 333 0 q 442 -39 408 -31 q 500 -51 476 -47 l 621 -51 q 662 64 649 28 q 675 106 675 100 l 667 106 q 610 109 644 106 q 563 118 576 113 q 529 151 553 131 q 482 197 506 172 q 440 250 458 222 q 421 306 421 278 l 421 307 q 432 345 421 314 q 454 414 443 376 q 478 466 463 438 q 514 519 494 494 q 556 561 533 544 q 601 578 579 578 l 779 578 q 870 538 838 568 q 903 463 903 507 q 893 414 903 433 q 855 376 882 385 q 790 367 828 367 l 772 367 q 776 373 775 369 q 779 381 776 376 q 786 421 786 408 q 764 483 786 457 q 700 508 742 508 q 644 497 674 508 q 590 469 615 486 q 544 428 564 451 q 515 382 524 406 m 624 375 q 641 398 629 389 q 667 407 653 407 q 689 388 689 407 q 686 375 689 389 q 669 352 682 361 q 643 343 657 343 q 622 364 622 343 q 624 375 622 374 "},"A":{"ha":1049,"x_min":28,"x_max":1024,"o":"m 1024 0 l 776 0 l 747 157 q 727 125 744 149 q 688 75 710 101 q 646 26 667 49 q 615 0 625 4 l 28 0 q 31 10 31 11 l 31 14 l 531 653 q 547 675 535 661 q 574 702 560 689 q 603 726 589 715 q 628 736 618 736 l 861 736 q 887 721 875 736 q 907 683 899 706 q 922 637 915 661 q 932 596 928 613 l 1024 0 m 465 200 l 465 186 l 747 186 l 699 513 l 465 200 "},"B":{"ha":957,"x_min":39,"x_max":1085,"o":"m 307 736 l 944 736 q 1013 719 986 736 q 1056 674 1040 701 q 1078 608 1072 646 q 1085 532 1085 571 l 1085 529 q 1073 475 1085 501 q 1044 426 1061 449 q 1006 385 1026 403 q 969 360 986 368 q 997 324 985 347 q 1011 274 1010 301 q 1004 235 1011 254 q 990 197 997 215 l 985 182 q 941 99 964 133 q 883 42 918 64 q 799 10 849 21 q 676 0 750 0 l 39 0 l 307 736 m 428 336 l 561 454 l 783 454 q 790 460 785 454 q 800 475 794 467 q 810 491 806 483 q 817 503 815 499 l 819 510 q 817 514 818 511 q 817 517 817 517 q 802 535 813 524 q 789 547 792 547 l 504 547 l 428 336 m 374 189 l 658 189 q 665 192 658 189 q 681 201 672 196 q 697 210 689 206 q 710 219 706 215 q 715 230 710 219 q 722 242 721 240 l 725 249 q 728 263 728 253 q 729 282 729 272 l 410 282 l 374 189 "},"C":{"ha":876,"x_min":176,"x_max":1113,"o":"m 176 338 l 176 340 q 206 478 176 407 q 285 606 235 549 q 400 699 335 663 q 539 736 465 736 l 1113 736 q 1031 637 1072 683 q 942 549 990 590 l 581 549 q 542 537 563 549 q 503 506 522 525 q 469 462 485 486 q 446 414 454 438 q 435 357 435 378 q 449 301 435 331 q 484 246 463 271 q 531 204 506 221 q 581 188 557 188 l 913 188 q 840 91 881 140 q 747 0 800 42 l 636 0 q 468 15 550 0 q 321 69 386 31 q 216 172 256 107 q 176 338 176 238 "},"D":{"ha":914,"x_min":39,"x_max":1069,"o":"m 985 335 q 1049 456 1028 393 q 1069 574 1069 519 q 1032 690 1069 644 q 911 736 994 736 l 307 736 l 39 0 l 385 0 q 579 19 493 0 q 736 78 665 38 q 867 181 807 118 q 985 335 928 244 m 508 549 l 733 549 q 770 533 760 549 q 781 493 781 517 q 772 454 781 475 q 754 411 763 433 q 736 379 747 393 q 718 354 725 365 q 661 294 699 324 q 579 240 624 264 q 490 202 535 217 q 413 188 446 188 l 376 188 l 508 549 "},"E":{"ha":868,"x_min":39,"x_max":1099,"o":"m 307 736 l 1099 736 q 1066 685 1089 717 q 1017 624 1043 654 q 967 571 992 593 q 932 549 943 549 l 504 549 l 425 331 l 557 458 l 878 458 l 679 271 l 403 271 l 372 188 l 904 188 q 897 176 903 185 q 886 157 892 167 q 875 139 881 147 q 868 129 869 131 q 834 90 856 113 q 792 48 813 68 q 755 14 771 28 q 738 0 739 0 l 39 0 l 307 736 "},"F":{"ha":863,"x_min":39,"x_max":1099,"o":"m 307 736 l 1099 736 q 1066 685 1089 717 q 1017 624 1043 654 q 967 571 992 593 q 932 549 943 549 l 504 549 l 425 331 l 557 458 l 878 458 l 679 271 l 403 271 l 304 0 l 39 0 l 307 736 "},"G":{"ha":889,"x_min":176,"x_max":1113,"o":"m 1017 458 l 683 458 q 640 415 664 443 q 593 358 615 386 q 555 306 571 329 q 538 279 539 283 l 538 278 l 694 278 l 663 188 l 581 188 q 530 204 556 188 q 483 246 504 221 q 448 301 461 271 q 435 357 435 331 q 446 414 435 378 q 468 462 454 438 q 499 506 482 486 q 538 537 517 525 q 581 549 558 549 l 942 549 q 1031 637 990 590 q 1113 736 1072 683 l 539 736 q 400 699 465 736 q 285 604 335 663 q 206 475 235 546 q 176 338 176 404 q 216 172 176 238 q 321 69 256 107 q 468 15 386 31 q 636 0 550 0 l 843 0 l 1017 458 "},"H":{"ha":908,"x_min":39,"x_max":1138,"o":"m 39 0 l 307 736 l 574 736 l 417 306 l 558 451 l 769 451 l 874 736 l 1138 736 l 869 0 l 606 0 l 701 264 l 401 264 l 306 0 l 39 0 "},"I":{"ha":856,"x_min":32,"x_max":1092,"o":"m 32 0 l 32 1 q 52 32 33 7 q 97 88 71 57 q 149 147 122 118 q 196 188 176 175 l 363 188 l 494 549 l 232 549 l 232 550 q 252 581 233 556 q 297 636 271 606 q 349 695 322 667 q 396 736 376 724 l 1092 736 q 1059 685 1082 717 q 1010 624 1036 654 q 960 571 985 593 q 925 549 936 549 l 761 549 l 629 188 l 892 188 q 859 137 882 168 q 810 75 836 106 q 760 22 785 44 q 725 0 736 0 l 32 0 "},"J":{"ha":796,"x_min":32,"x_max":1025,"o":"m 458 0 l 32 0 q 94 96 61 49 q 172 188 128 143 l 453 188 q 504 201 479 188 q 549 236 529 215 q 585 281 569 257 q 611 324 601 304 l 761 736 l 1025 736 l 890 368 q 826 210 858 279 q 751 95 794 142 q 648 24 708 49 q 499 0 588 0 l 458 0 "},"K":{"ha":969,"x_min":39,"x_max":1210,"o":"m 39 0 l 307 736 l 574 736 l 453 406 l 913 736 l 1210 736 l 729 368 l 996 0 l 699 0 l 426 331 l 306 0 l 39 0 "},"L":{"ha":778,"x_min":39,"x_max":814,"o":"m 39 0 l 649 0 q 697 47 668 15 q 753 109 726 78 q 797 164 779 140 q 813 188 814 188 l 372 188 l 572 736 l 307 736 l 39 0 "},"M":{"ha":1161,"x_min":39,"x_max":1390,"o":"m 1122 0 l 856 0 l 1006 414 l 628 0 l 532 0 l 456 414 l 306 0 l 39 0 l 307 736 l 643 736 l 714 367 l 1054 736 l 1390 736 l 1122 0 "},"N":{"ha":908,"x_min":39,"x_max":1138,"o":"m 39 0 l 307 736 l 643 736 l 722 322 l 874 736 l 1138 736 l 869 0 l 533 0 l 456 414 l 306 0 l 39 0 "},"O":{"ha":1001,"x_min":157,"x_max":1115,"o":"m 1107 399 q 1053 244 1094 317 q 949 118 1011 172 q 810 32 888 64 q 651 0 733 0 l 513 0 q 371 13 436 0 q 258 55 306 25 q 184 136 211 85 q 157 265 157 188 q 158 300 157 282 q 163 338 160 318 q 214 488 174 415 q 314 615 254 560 q 445 703 374 669 q 590 736 517 736 l 774 736 q 1028 678 942 736 q 1115 488 1115 621 q 1107 399 1115 446 m 424 357 q 422 347 422 356 l 422 339 q 432 287 422 314 q 458 238 442 260 q 497 201 475 215 q 544 188 519 188 l 636 188 q 676 199 650 188 q 729 231 701 211 q 782 274 757 250 q 819 322 807 299 q 835 353 832 342 l 840 367 q 843 379 843 381 q 845 402 844 390 q 846 426 846 414 q 842 471 846 449 q 825 510 838 493 q 791 538 813 528 q 735 549 769 549 l 622 549 q 574 537 600 549 q 524 506 549 525 q 477 462 499 486 q 443 414 456 438 q 431 383 436 397 q 424 357 425 368 "},"P":{"ha":938,"x_min":39,"x_max":1085,"o":"m 39 0 l 307 736 l 944 736 q 1013 715 986 736 q 1056 662 1040 693 q 1078 595 1072 631 q 1085 532 1085 560 q 1057 425 1085 474 q 986 341 1029 376 q 892 286 943 306 q 793 267 840 267 l 403 267 l 306 0 l 39 0 m 504 547 l 428 336 l 561 454 l 783 454 q 790 460 785 454 q 800 475 794 467 q 810 491 806 483 q 817 503 815 499 l 819 510 q 817 514 818 511 q 817 517 817 517 q 802 535 813 524 q 789 547 792 547 l 504 547 "},"Q":{"ha":992,"x_min":158,"x_max":1108,"o":"m 1101 399 q 1036 238 1089 319 q 907 93 983 156 l 975 -39 l 697 -39 l 674 0 l 549 0 q 400 13 471 0 q 276 56 329 25 q 190 140 222 88 q 158 275 158 193 q 163 338 158 304 q 214 489 174 417 q 314 616 254 561 q 445 703 374 671 q 590 736 517 736 l 774 736 q 910 719 849 736 q 1016 669 972 703 q 1084 586 1060 636 q 1108 471 1108 536 q 1106 436 1108 454 q 1101 399 1104 418 m 488 353 l 779 353 l 807 299 q 813 310 810 304 q 819 322 817 315 q 835 353 832 342 l 840 367 q 843 379 843 381 q 844 393 844 382 l 844 410 q 839 459 844 435 q 819 503 833 483 q 780 536 804 524 q 718 549 756 549 l 622 549 q 574 537 600 549 q 524 506 549 525 q 477 462 499 486 q 443 414 456 438 q 431 383 436 397 q 424 357 425 368 q 422 347 422 356 l 422 339 q 432 287 422 314 q 458 238 442 260 q 497 201 475 215 q 544 188 519 188 l 563 188 l 488 353 "},"R":{"ha":963,"x_min":39,"x_max":1079,"o":"m 39 0 l 307 736 l 926 736 q 1003 715 974 736 q 1050 663 1033 694 q 1073 593 1067 631 q 1079 524 1079 556 q 1044 407 1079 453 q 958 334 1010 361 q 842 295 906 307 q 724 279 779 283 l 996 0 l 699 0 l 413 264 l 397 253 l 306 0 l 39 0 m 810 508 l 810 524 q 806 542 810 535 q 785 550 801 550 l 506 550 l 426 333 l 549 457 l 771 457 q 801 476 792 457 q 810 508 810 494 "},"S":{"ha":917,"x_min":54,"x_max":1144,"o":"m 699 233 l 699 225 q 695 199 699 211 q 671 186 692 186 l 199 186 q 174 162 194 186 q 128 106 153 138 q 83 44 104 75 q 54 0 61 14 l 763 0 q 835 23 800 0 q 898 81 871 46 q 942 156 925 115 q 958 233 958 197 l 958 242 q 949 311 958 274 q 919 381 939 349 q 867 435 899 414 q 790 457 835 457 l 526 457 q 515 462 525 457 q 499 472 504 467 q 490 480 496 475 q 485 486 485 485 l 485 493 q 496 526 485 506 q 522 547 507 547 l 981 547 q 1072 642 1031 594 q 1144 736 1113 689 l 436 736 q 358 710 397 736 q 289 647 319 685 q 239 566 258 608 q 219 490 219 524 q 232 417 219 454 q 269 348 244 379 q 326 297 293 317 q 401 276 360 276 l 679 276 q 694 265 690 276 q 699 242 699 253 l 699 233 "},"T":{"ha":856,"x_min":232,"x_max":1092,"o":"m 294 0 l 494 549 l 232 549 l 232 550 q 252 581 233 556 q 297 636 271 606 q 349 695 322 667 q 396 736 376 724 l 1092 736 q 1059 685 1082 717 q 1010 624 1036 654 q 960 571 985 593 q 925 549 936 549 l 761 549 l 561 0 l 294 0 "},"U":{"ha":947,"x_min":150,"x_max":1176,"o":"m 197 428 q 174 344 185 381 q 157 272 164 308 q 152 236 154 253 q 150 204 150 219 q 167 110 150 149 q 222 47 183 71 q 326 11 261 22 q 488 0 390 0 l 650 0 q 793 26 733 0 q 899 101 853 51 q 981 224 944 151 q 1051 393 1017 297 l 1176 736 l 913 736 l 763 324 q 736 281 753 304 q 697 236 719 257 q 647 201 675 215 q 585 188 618 188 l 517 188 q 454 215 478 188 q 431 290 431 242 q 438 335 431 307 q 440 349 438 339 q 456 399 443 360 q 494 516 468 438 q 569 736 521 594 l 307 736 l 197 428 "},"V":{"ha":1029,"x_min":293,"x_max":1272,"o":"m 601 240 l 986 736 l 1272 736 l 779 86 q 760 64 772 78 q 733 35 747 50 q 703 10 718 21 q 678 0 688 0 l 449 0 q 422 15 433 0 q 403 53 411 31 q 389 99 394 75 q 379 140 383 124 l 293 736 l 535 736 l 601 240 "},"W":{"ha":1211,"x_min":293,"x_max":1454,"o":"m 996 397 l 1210 736 l 1454 736 l 1035 88 q 1019 65 1029 79 q 997 35 1008 50 q 973 10 985 21 q 954 0 961 0 l 790 0 q 773 19 779 0 q 761 76 767 38 q 749 176 756 115 q 733 322 743 238 l 569 88 q 553 65 563 79 q 532 35 543 50 q 510 10 521 21 q 490 0 499 0 l 325 0 q 309 13 315 0 q 299 45 303 26 q 294 86 296 64 q 293 126 293 108 l 293 736 l 522 736 l 522 372 l 758 736 l 972 736 l 996 397 "},"X":{"ha":914,"x_min":25,"x_max":1156,"o":"m 321 0 l 25 0 l 443 369 l 294 736 l 592 736 l 661 563 l 858 736 l 1156 736 l 740 369 l 889 0 l 593 0 l 521 176 l 321 0 "},"Y":{"ha":911,"x_min":293,"x_max":1154,"o":"m 322 0 l 450 350 l 293 736 l 590 736 l 660 563 l 857 736 l 1154 736 l 717 350 l 589 0 l 322 0 "},"Z":{"ha":856,"x_min":32,"x_max":1092,"o":"m 32 0 l 606 549 l 232 549 l 232 550 q 252 581 233 556 q 297 636 271 606 q 349 695 322 667 q 396 736 376 724 l 1092 736 l 518 188 l 892 188 q 859 137 882 168 q 810 75 836 106 q 760 22 785 44 q 725 0 736 0 l 32 0 "},"[":{"ha":572,"x_min":11,"x_max":829,"o":"m 340 829 l 829 829 q 797 778 819 810 q 748 717 774 747 q 698 664 722 686 q 663 642 674 642 l 538 642 l 344 110 l 574 110 q 567 98 572 107 q 555 79 561 89 q 543 61 549 69 q 536 51 538 53 q 503 13 524 35 q 461 -30 482 -10 q 424 -64 440 -50 q 407 -78 408 -78 l 11 -78 l 340 829 "},"\\":{"ha":913,"x_min":293,"x_max":888,"o":"m 592 0 l 293 736 l 590 736 l 888 0 l 592 0 "},"]":{"ha":572,"x_min":15,"x_max":835,"o":"m 504 -79 l 15 -79 q 48 -29 25 -61 q 97 33 71 3 q 146 86 122 64 q 182 108 169 108 l 307 108 l 501 640 l 272 640 q 279 652 274 643 q 290 671 285 661 q 301 689 296 681 q 308 699 307 697 q 342 738 321 715 q 385 780 364 760 q 422 814 406 800 q 439 828 438 828 l 835 828 l 504 -79 "},"^":{"ha":1049,"x_min":28,"x_max":1024,"o":"m 699 513 l 776 0 l 1024 0 l 932 596 q 922 637 928 613 q 907 683 915 661 q 887 721 899 706 q 861 736 875 736 l 628 736 q 603 726 618 736 q 574 702 589 715 q 547 675 560 689 q 531 653 535 661 l 31 14 l 31 10 q 28 0 31 11 l 324 0 l 699 513 "},"_":{"ha":642,"x_min":25,"x_max":685,"o":"m 486 0 l 25 0 l 224 188 l 685 188 l 486 0 "},"`":{"ha":236,"x_min":278,"x_max":424,"o":"m 406 694 q 394 723 401 710 q 372 736 388 736 q 333 725 363 736 q 282 667 296 701 q 280 649 278 657 q 285 632 282 640 l 293 600 q 322 568 300 582 q 363 554 343 554 q 378 557 375 554 l 386 563 q 404 578 397 568 q 417 601 411 589 q 420 635 424 621 q 417 664 417 650 l 406 694 "},"a":{"ha":1049,"x_min":28,"x_max":1024,"o":"m 1024 0 l 776 0 l 747 157 q 727 125 744 149 q 688 75 710 101 q 646 26 667 49 q 615 0 625 4 l 28 0 q 31 10 31 11 l 31 14 l 531 653 q 547 675 535 661 q 574 702 560 689 q 603 726 589 715 q 628 736 618 736 l 861 736 q 887 721 875 736 q 907 683 899 706 q 922 637 915 661 q 932 596 928 613 l 1024 0 m 465 200 l 465 186 l 747 186 l 699 513 l 465 200 "},"b":{"ha":957,"x_min":39,"x_max":1085,"o":"m 307 736 l 944 736 q 1013 719 986 736 q 1056 674 1040 701 q 1078 608 1072 646 q 1085 532 1085 571 l 1085 529 q 1073 475 1085 501 q 1044 426 1061 449 q 1006 385 1026 403 q 969 360 986 368 q 997 324 985 347 q 1011 274 1010 301 q 1004 235 1011 254 q 990 197 997 215 l 985 182 q 941 99 964 133 q 883 42 918 64 q 799 10 849 21 q 676 0 750 0 l 39 0 l 307 736 m 428 336 l 561 454 l 783 454 q 790 460 785 454 q 800 475 794 467 q 810 491 806 483 q 817 503 815 499 l 819 510 q 817 514 818 511 q 817 517 817 517 q 802 535 813 524 q 789 547 792 547 l 504 547 l 428 336 m 374 189 l 658 189 q 665 192 658 189 q 681 201 672 196 q 697 210 689 206 q 710 219 706 215 q 715 230 710 219 q 722 242 721 240 l 725 249 q 728 263 728 253 q 729 282 729 272 l 410 282 l 374 189 "},"c":{"ha":876,"x_min":176,"x_max":1113,"o":"m 176 338 l 176 340 q 206 478 176 407 q 285 606 235 549 q 400 699 335 663 q 539 736 465 736 l 1113 736 q 1031 637 1072 683 q 942 549 990 590 l 581 549 q 542 537 563 549 q 503 506 522 525 q 469 462 485 486 q 446 414 454 438 q 435 357 435 378 q 449 301 435 331 q 484 246 463 271 q 531 204 506 221 q 581 188 557 188 l 913 188 q 840 91 881 140 q 747 0 800 42 l 636 0 q 468 15 550 0 q 321 69 386 31 q 216 172 256 107 q 176 338 176 238 "},"d":{"ha":914,"x_min":39,"x_max":1069,"o":"m 982 332 q 1047 455 1025 390 q 1069 574 1069 519 q 1032 690 1069 644 q 911 736 994 736 l 307 736 l 39 0 l 385 0 q 577 18 493 0 q 731 76 661 36 q 862 178 801 115 q 982 332 922 242 m 508 549 l 733 549 q 770 533 760 549 q 781 493 781 517 q 772 454 781 475 q 756 411 764 433 q 738 379 749 393 q 719 354 728 365 q 662 294 699 324 q 582 240 625 264 q 494 202 539 217 q 413 188 450 188 l 376 188 l 508 549 "},"e":{"ha":868,"x_min":39,"x_max":1099,"o":"m 307 736 l 1099 736 q 1066 685 1089 717 q 1017 624 1043 654 q 967 571 992 593 q 932 549 943 549 l 504 549 l 425 331 l 557 458 l 878 458 l 679 271 l 403 271 l 372 188 l 904 188 q 897 176 903 185 q 886 157 892 167 q 875 139 881 147 q 868 129 869 131 q 834 90 856 113 q 792 48 813 68 q 755 14 771 28 q 738 0 739 0 l 39 0 l 307 736 "},"f":{"ha":863,"x_min":39,"x_max":1099,"o":"m 307 736 l 1099 736 q 1066 685 1089 717 q 1017 624 1043 654 q 967 571 992 593 q 932 549 943 549 l 504 549 l 425 331 l 557 458 l 878 458 l 679 271 l 403 271 l 304 0 l 39 0 l 307 736 "},"g":{"ha":889,"x_min":176,"x_max":1113,"o":"m 1017 458 l 683 458 q 640 415 664 443 q 593 358 615 386 q 555 306 571 329 q 538 279 539 283 l 538 278 l 694 278 l 663 188 l 581 188 q 530 204 556 188 q 483 246 504 221 q 448 301 461 271 q 435 357 435 331 q 446 414 435 378 q 468 462 454 438 q 499 506 482 486 q 538 537 517 525 q 581 549 558 549 l 942 549 q 1031 637 990 590 q 1113 736 1072 683 l 539 736 q 400 699 465 736 q 285 604 335 663 q 206 475 235 546 q 176 338 176 404 q 216 172 176 238 q 321 69 256 107 q 468 15 386 31 q 636 0 550 0 l 843 0 l 1017 458 "},"h":{"ha":908,"x_min":39,"x_max":1138,"o":"m 39 0 l 307 736 l 574 736 l 417 306 l 558 451 l 769 451 l 874 736 l 1138 736 l 869 0 l 606 0 l 701 264 l 401 264 l 306 0 l 39 0 "},"i":{"ha":350,"x_min":42,"x_max":576,"o":"m 42 0 l 310 736 l 576 736 l 308 0 l 42 0 "},"j":{"ha":796,"x_min":32,"x_max":1025,"o":"m 458 0 l 32 0 q 94 96 61 49 q 172 188 128 143 l 453 188 q 504 201 479 188 q 549 236 529 215 q 585 281 569 257 q 611 324 601 304 l 761 736 l 1025 736 l 890 368 q 826 210 858 279 q 751 95 794 142 q 648 24 708 49 q 499 0 588 0 l 458 0 "},"k":{"ha":969,"x_min":39,"x_max":1210,"o":"m 39 0 l 307 736 l 574 736 l 453 406 l 913 736 l 1210 736 l 729 368 l 996 0 l 699 0 l 426 331 l 306 0 l 39 0 "},"l":{"ha":778,"x_min":39,"x_max":814,"o":"m 39 0 l 649 0 q 697 47 668 15 q 753 109 726 78 q 797 164 779 140 q 813 188 814 188 l 372 188 l 572 736 l 307 736 l 39 0 "},"m":{"ha":1161,"x_min":39,"x_max":1390,"o":"m 1122 0 l 856 0 l 1006 414 l 628 0 l 532 0 l 456 414 l 306 0 l 39 0 l 307 736 l 643 736 l 714 367 l 1054 736 l 1390 736 l 1122 0 "},"n":{"ha":908,"x_min":39,"x_max":1138,"o":"m 39 0 l 307 736 l 643 736 l 722 322 l 874 736 l 1138 736 l 869 0 l 533 0 l 456 414 l 306 0 l 39 0 "},"o":{"ha":1025,"x_min":157,"x_max":1138,"o":"m 1131 399 q 1076 249 1118 321 q 974 122 1035 176 q 835 33 913 67 q 675 0 758 0 l 513 0 q 371 13 436 0 q 258 55 306 25 q 184 136 211 85 q 157 265 157 188 q 158 300 157 282 q 163 338 160 318 q 213 484 172 413 q 313 612 253 556 q 444 702 372 668 q 590 736 517 736 l 797 736 q 939 722 876 736 q 1046 676 1001 707 q 1114 597 1090 646 q 1138 479 1138 547 q 1136 440 1138 460 q 1131 399 1135 421 m 424 357 q 422 347 422 356 l 422 339 q 432 287 422 314 q 458 238 442 260 q 497 201 475 215 q 544 188 519 188 l 660 188 q 697 199 672 188 q 751 231 722 211 q 805 274 779 250 q 843 322 831 299 q 858 353 856 342 l 864 367 q 867 379 867 381 q 869 402 868 390 q 869 426 869 414 q 865 471 869 449 q 849 510 861 493 q 815 538 836 528 q 758 549 793 549 l 622 549 q 574 537 600 549 q 524 506 549 525 q 477 462 499 486 q 443 414 456 438 q 431 383 436 397 q 424 357 425 368 "},"p":{"ha":938,"x_min":39,"x_max":1085,"o":"m 39 0 l 307 736 l 944 736 q 1010 715 983 736 q 1053 662 1036 693 q 1077 595 1069 631 q 1085 532 1085 560 q 1057 425 1085 474 q 986 341 1029 376 q 892 286 943 306 q 793 267 840 267 l 403 267 l 306 0 l 39 0 m 504 547 l 428 336 l 561 454 l 783 454 q 790 460 785 454 q 800 475 794 467 q 810 491 806 483 q 817 503 815 499 l 819 510 q 817 514 818 511 q 817 517 817 517 q 802 535 813 524 q 789 547 792 547 l 504 547 "},"q":{"ha":988,"x_min":158,"x_max":1108,"o":"m 1101 399 q 1036 238 1089 319 q 907 93 983 156 l 975 -39 l 697 -39 l 674 0 l 549 0 q 400 13 471 0 q 276 56 329 25 q 190 140 222 88 q 158 275 158 193 q 163 338 158 304 q 214 485 174 413 q 314 613 254 557 q 445 702 374 668 q 590 736 517 736 l 774 736 q 910 719 849 736 q 1016 669 972 703 q 1084 586 1060 636 q 1108 471 1108 536 q 1106 436 1108 454 q 1101 399 1104 418 m 488 353 l 779 353 l 807 299 q 813 310 810 304 q 819 322 817 315 q 835 353 832 342 l 840 367 q 843 379 843 381 q 844 393 844 382 l 844 410 q 839 459 844 435 q 819 503 833 483 q 780 536 804 524 q 718 549 756 549 l 622 549 q 574 537 600 549 q 524 506 549 525 q 477 462 499 486 q 443 414 456 438 q 431 383 436 397 q 424 357 425 368 q 422 347 422 356 l 422 339 q 432 287 422 314 q 458 238 442 260 q 497 201 475 215 q 544 188 519 188 l 563 188 l 488 353 "},"r":{"ha":971,"x_min":39,"x_max":1079,"o":"m 39 0 l 307 736 l 926 736 q 1007 715 976 736 q 1053 663 1038 694 q 1074 593 1069 631 q 1079 524 1079 556 q 1044 407 1079 453 q 958 334 1010 361 q 842 295 906 307 q 724 279 779 283 l 996 0 l 699 0 l 413 264 l 397 253 l 306 0 l 39 0 m 810 508 l 810 524 q 806 542 810 535 q 785 550 801 550 l 506 550 l 426 333 l 549 457 l 771 457 q 801 476 792 457 q 810 508 810 494 "},"s":{"ha":917,"x_min":54,"x_max":1144,"o":"m 699 233 l 699 225 q 695 199 699 211 q 671 186 692 186 l 199 186 q 174 162 194 186 q 128 106 153 138 q 83 44 104 75 q 54 0 61 14 l 763 0 q 835 23 800 0 q 898 81 871 46 q 942 156 925 115 q 958 233 958 197 l 958 242 q 949 311 958 274 q 920 381 940 349 q 868 435 900 414 q 790 457 836 457 l 526 457 q 515 462 525 457 q 499 472 504 467 q 490 480 496 475 q 485 486 485 485 l 485 493 q 496 526 485 506 q 522 547 507 547 l 981 547 q 1072 642 1031 594 q 1144 736 1113 689 l 436 736 q 358 710 397 736 q 289 647 319 685 q 239 566 258 608 q 219 490 219 524 q 232 417 219 454 q 269 348 244 379 q 326 297 293 317 q 401 276 360 276 l 679 276 q 694 265 690 276 q 699 242 699 253 l 699 233 "},"t":{"ha":856,"x_min":232,"x_max":1092,"o":"m 294 0 l 494 549 l 232 549 l 232 550 q 252 581 233 556 q 297 636 271 606 q 349 695 322 667 q 396 736 376 724 l 1092 736 q 1059 685 1082 717 q 1010 624 1036 654 q 960 571 985 593 q 925 549 936 549 l 761 549 l 561 0 l 294 0 "},"u":{"ha":947,"x_min":147,"x_max":1176,"o":"m 197 428 q 172 345 185 381 q 153 274 160 310 q 149 239 150 254 q 147 208 147 224 q 164 113 147 153 q 219 49 181 74 q 324 12 258 24 q 488 0 389 0 l 650 0 q 793 26 733 0 q 899 101 853 51 q 981 224 944 151 q 1051 393 1017 297 l 1176 736 l 913 736 l 763 324 q 736 281 753 304 q 697 236 719 257 q 647 201 675 215 q 585 188 618 188 l 517 188 q 458 215 485 188 q 431 290 431 242 q 438 335 431 307 q 440 349 438 339 q 456 399 443 360 q 494 516 468 438 q 569 736 521 594 l 307 736 l 197 428 "},"v":{"ha":1029,"x_min":293,"x_max":1272,"o":"m 601 240 l 986 736 l 1272 736 l 779 86 q 760 64 772 78 q 733 35 747 50 q 703 10 718 21 q 678 0 688 0 l 449 0 q 422 15 433 0 q 403 53 411 31 q 389 99 394 75 q 379 140 383 124 l 293 736 l 535 736 l 601 240 "},"w":{"ha":1211,"x_min":122,"x_max":1440,"o":"m 140 276 l 308 736 l 569 736 l 447 374 q 442 353 446 367 q 436 327 439 340 q 431 303 433 314 q 428 288 428 292 q 438 233 428 250 q 466 209 449 217 q 505 200 483 201 q 547 193 526 199 l 744 736 l 1008 736 l 808 186 l 976 186 l 1176 736 l 1440 736 l 1172 0 l 429 0 q 283 15 342 0 q 188 56 224 31 q 138 114 153 81 q 122 185 122 147 q 127 231 122 208 q 140 276 132 253 "},"x":{"ha":914,"x_min":25,"x_max":1156,"o":"m 321 0 l 25 0 l 443 369 l 294 736 l 592 736 l 661 563 l 858 736 l 1156 736 l 740 369 l 889 0 l 593 0 l 521 176 l 321 0 "},"y":{"ha":911,"x_min":293,"x_max":1154,"o":"m 322 0 l 450 350 l 293 736 l 590 736 l 660 563 l 857 736 l 1154 736 l 717 350 l 589 0 l 322 0 "},"z":{"ha":856,"x_min":32,"x_max":1092,"o":"m 32 0 l 606 549 l 232 549 l 232 550 q 252 581 233 556 q 297 636 271 606 q 349 695 322 667 q 396 736 376 724 l 1092 736 l 518 188 l 892 188 q 859 137 882 168 q 810 75 836 106 q 760 22 785 44 q 725 0 736 0 l 32 0 "},"{":{"ha":771,"x_min":124,"x_max":1028,"o":"m 539 829 l 404 458 l 322 458 l 124 271 l 336 271 l 210 -78 l 606 -78 q 623 -64 607 -78 q 660 -30 639 -50 q 701 13 681 -10 q 735 51 722 35 q 742 61 736 53 q 753 79 747 69 q 765 98 760 89 q 772 110 771 107 l 543 110 l 736 642 l 861 642 q 897 664 872 642 q 947 717 921 686 q 995 778 972 747 q 1028 829 1018 810 l 539 829 "},"|":{"ha":344,"x_min":-32,"x_max":643,"o":"m -32 -196 l 376 929 l 643 929 l 235 -196 l -32 -196 "},"}":{"ha":771,"x_min":15,"x_max":921,"o":"m 504 -79 l 639 292 l 721 292 l 921 479 l 708 479 l 835 828 l 439 828 q 422 814 438 828 q 385 780 406 800 q 342 738 364 760 q 308 699 321 715 q 301 689 307 697 q 290 671 296 681 q 279 652 285 661 q 272 640 274 643 l 501 640 l 307 108 l 182 108 q 146 86 169 108 q 97 33 122 64 q 48 -29 71 3 q 15 -79 25 -61 l 504 -79 "},"~":{"ha":574,"x_min":125,"x_max":714,"o":"m 489 364 l 444 458 l 322 458 q 305 451 315 458 q 288 439 294 444 l 125 271 l 261 271 l 350 365 l 396 271 l 517 271 q 534 278 524 271 q 551 290 544 285 q 646 387 613 353 q 694 436 679 421 q 712 455 710 451 q 714 458 714 458 l 578 458 l 489 364 "},"":{"ha":243,"x_min":0,"x_max":0,"o":""},"€":{"ha":1028,"x_min":108,"x_max":1264,"o":"m 685 228 l 858 339 l 588 339 q 585 349 585 350 l 588 381 l 740 381 l 914 492 l 640 492 q 682 532 658 515 q 732 549 706 549 l 1093 549 q 1183 637 1142 590 q 1264 736 1224 683 l 690 736 q 588 716 638 736 q 497 663 539 696 q 420 585 454 629 q 364 492 386 540 l 338 492 l 164 381 l 331 381 l 328 339 l 282 339 l 108 228 l 344 228 q 408 117 364 161 q 513 47 453 74 q 644 10 574 21 q 788 0 715 0 l 899 0 q 992 91 951 42 q 1064 188 1032 140 l 732 188 q 653 228 689 188 l 685 228 "},"‚":{"ha":289,"x_min":50,"x_max":300,"o":"m 53 39 q 51 -1 51 22 q 54 -47 50 -25 q 69 -84 58 -68 q 100 -100 79 -100 l 113 -100 q 148 -85 125 -100 q 194 -50 171 -71 q 238 -5 218 -29 q 264 39 257 19 l 285 97 q 280 167 300 138 q 215 196 260 196 q 131 167 171 196 q 74 97 90 138 l 53 39 "},"ƒ":{"ha":1217,"x_min":169,"x_max":1332,"o":"m 1324 404 q 1249 469 1332 428 q 1321 519 1307 478 l 1324 525 l 1325 529 l 1190 575 q 1238 624 1221 579 l 1228 642 l 1050 642 l 1076 693 l 1026 701 l 864 667 l 858 675 l 876 701 l 856 728 l 690 650 l 643 701 q 590 667 619 692 q 515 599 560 642 l 443 633 l 440 633 q 361 511 404 633 l 275 521 l 250 469 l 272 408 l 185 392 l 178 350 l 244 306 l 182 263 q 193 229 169 229 l 304 204 l 271 175 l 258 143 l 447 125 l 424 82 l 440 67 l 640 100 l 622 49 l 643 40 l 817 125 l 843 74 l 883 82 l 992 175 q 1025 151 1011 160 q 1056 142 1039 142 q 1092 161 1079 142 l 1138 263 l 1206 246 q 1243 282 1232 254 l 1246 289 q 1246 299 1247 297 l 1226 365 l 1294 365 l 1321 401 l 1324 404 m 1296 392 l 1196 383 q 1221 281 1229 304 l 1215 269 l 1124 289 l 1072 168 l 988 204 l 875 100 l 826 151 l 644 67 l 664 100 l 653 135 l 450 92 l 494 151 l 288 161 l 367 210 l 203 256 l 301 299 l 201 375 l 301 383 l 276 460 l 282 496 l 376 486 l 433 607 q 494 569 471 569 q 517 575 507 569 l 633 675 l 672 624 l 839 701 l 850 693 l 838 642 l 1046 675 l 1008 615 l 1211 615 l 1133 564 l 1289 521 l 1292 503 l 1283 503 l 1199 479 l 1294 408 l 1296 392 m 1172 453 l 1142 461 l 1094 346 l 1115 342 l 1172 453 m 1101 294 l 1083 303 l 1063 289 l 1072 269 l 1101 294 m 1047 303 l 1103 453 l 1083 461 l 1039 356 l 1000 453 l 946 301 l 967 303 l 994 378 q 1047 303 1017 303 m 922 303 l 963 417 q 946 464 971 464 q 925 460 931 464 q 862 386 889 424 q 815 310 835 349 l 843 310 q 890 346 872 346 q 908 310 906 346 l 922 303 m 857 461 l 828 454 l 760 301 l 796 313 l 857 461 m 733 297 l 788 447 l 767 454 l 725 350 l 683 447 l 631 294 l 653 299 l 679 369 q 733 297 700 297 m 654 403 q 617 453 658 453 l 608 453 l 603 453 q 504 319 539 421 q 540 294 501 294 q 550 295 544 294 q 563 297 556 296 q 654 403 599 297 m 544 458 q 415 369 440 442 l 413 361 q 410 350 408 351 q 436 283 397 283 q 467 290 439 283 l 474 315 q 460 313 467 314 q 447 313 454 313 q 431 342 418 313 q 472 403 442 374 q 515 425 499 425 q 528 421 521 425 l 544 458 m 432 454 l 407 449 l 336 294 l 371 306 l 432 454 m 925 378 l 883 378 l 928 429 l 925 378 m 619 382 q 592 336 613 363 q 553 324 563 324 q 543 360 531 324 l 547 369 q 604 419 582 419 q 621 399 621 419 q 619 382 624 396 "},"„":{"ha":529,"x_min":50,"x_max":540,"o":"m 293 39 q 291 -1 292 22 q 294 -47 290 -25 q 309 -84 299 -68 q 340 -100 319 -100 l 353 -100 q 388 -85 365 -100 q 435 -50 411 -71 q 478 -5 458 -29 q 504 39 497 19 l 525 97 q 520 167 540 138 q 456 196 500 196 q 371 167 411 196 q 314 97 331 138 l 293 39 m 53 39 q 51 -1 51 22 q 54 -47 50 -25 q 69 -84 58 -68 q 100 -100 79 -100 l 113 -100 q 148 -85 125 -100 q 194 -50 171 -71 q 238 -5 218 -29 q 264 39 257 19 l 285 97 q 280 167 300 138 q 215 196 260 196 q 131 167 171 196 q 74 97 90 138 l 53 39 "},"…":{"ha":779,"x_min":58,"x_max":790,"o":"m 564 97 q 621 167 581 138 q 706 196 661 196 q 770 167 750 196 q 775 97 790 138 q 753 59 768 76 q 720 28 739 42 q 679 8 701 15 q 635 0 657 0 q 569 28 590 0 q 564 97 549 57 m 317 97 q 374 167 333 138 q 458 196 414 196 q 523 167 503 196 q 528 97 543 138 q 506 59 521 76 q 473 28 492 42 q 432 8 454 15 q 388 0 410 0 q 322 28 343 0 q 317 97 301 57 m 74 97 q 131 167 90 138 q 215 196 171 196 q 280 167 260 196 q 285 97 300 138 q 263 59 278 76 q 230 28 249 42 q 189 8 211 15 q 144 0 167 0 q 79 28 100 0 q 74 97 58 57 "},"†":{"ha":600,"x_min":168,"x_max":790,"o":"m 168 0 l 435 0 l 581 401 l 592 401 l 790 589 l 649 589 l 703 736 l 436 736 l 382 589 l 371 589 l 172 401 l 314 401 l 168 0 "},"‡":{"ha":600,"x_min":78,"x_max":790,"o":"m 168 0 l 435 0 l 486 142 l 497 142 l 696 329 l 554 329 l 581 401 l 592 401 l 790 589 l 649 589 l 703 736 l 436 736 l 382 589 l 371 589 l 172 401 l 314 401 l 288 329 l 276 329 l 78 142 l 219 142 l 168 0 "},"ˆ":{"ha":418,"x_min":235,"x_max":601,"o":"m 443 656 l 488 574 l 601 574 l 538 704 q 522 724 531 713 q 501 736 513 736 l 415 736 q 399 730 408 736 q 385 719 390 724 l 235 574 l 361 574 l 443 656 "},"‰":{"ha":1581,"x_min":118,"x_max":1626,"o":"m 118 0 l 1008 736 l 1249 736 l 356 0 l 118 0 m 710 567 q 707 550 710 561 l 701 535 q 668 474 690 504 q 617 421 646 444 q 553 383 588 397 q 482 368 518 368 l 413 368 q 335 376 371 368 q 276 402 300 383 q 241 453 251 421 q 238 536 231 486 q 246 569 239 553 q 278 630 257 600 q 328 683 300 660 q 389 722 357 707 q 453 736 421 736 l 544 736 q 621 727 586 736 q 678 697 656 718 q 709 644 700 676 q 710 567 718 613 m 390 551 q 401 508 386 531 q 436 485 417 485 l 472 485 q 488 490 478 485 q 508 501 497 494 q 528 518 518 508 q 543 538 538 528 q 546 543 544 540 q 549 550 547 546 l 553 560 q 554 581 554 564 q 544 613 554 600 q 510 626 535 626 l 468 626 q 430 610 450 626 q 399 574 410 593 l 390 551 m 1132 199 q 1131 193 1132 197 q 1129 182 1131 189 l 1124 167 q 1090 106 1113 136 q 1039 53 1068 76 q 975 15 1010 29 q 904 0 940 0 l 835 0 q 758 8 793 0 q 698 34 722 15 q 663 85 674 53 q 660 168 653 118 q 668 201 661 185 q 701 262 679 232 q 750 315 722 292 q 810 353 778 339 q 874 368 842 368 l 965 368 q 1099 329 1050 368 q 1132 199 1147 290 m 813 183 q 824 140 808 163 q 858 117 839 117 l 894 117 q 930 133 907 117 q 964 169 953 150 q 971 182 969 176 l 974 192 q 975 213 975 196 q 967 245 975 232 q 932 258 958 258 l 890 258 q 852 242 872 258 q 821 206 832 225 l 813 183 m 1611 199 q 1610 193 1611 197 q 1608 182 1610 189 l 1603 167 q 1569 106 1592 136 q 1518 53 1547 76 q 1454 15 1489 29 q 1383 0 1419 0 l 1314 0 q 1237 8 1272 0 q 1177 34 1201 15 q 1142 85 1153 53 q 1139 168 1132 118 q 1147 201 1140 185 q 1180 262 1158 232 q 1229 315 1201 292 q 1289 353 1257 339 q 1353 368 1321 368 l 1444 368 q 1578 329 1529 368 q 1611 199 1626 290 m 1292 183 q 1303 140 1288 163 q 1338 117 1318 117 l 1374 117 q 1409 133 1386 117 q 1443 169 1432 150 q 1450 182 1449 176 l 1453 192 q 1454 213 1454 196 q 1446 245 1454 232 q 1411 258 1438 258 l 1369 258 q 1331 242 1351 258 q 1300 206 1311 225 l 1292 183 "},"Š":{"ha":917,"x_min":54,"x_max":1144,"o":"m 699 233 l 699 225 q 695 199 699 211 q 671 186 692 186 l 199 186 q 174 162 194 186 q 128 106 153 138 q 83 44 104 75 q 54 0 61 14 l 763 0 q 835 23 800 0 q 898 81 871 46 q 942 156 925 115 q 958 233 958 197 l 958 239 q 947 309 958 271 q 915 380 936 347 q 862 435 893 413 q 790 457 831 457 l 526 457 q 515 462 525 457 q 499 472 504 467 q 490 480 496 475 q 485 486 485 485 l 485 493 q 496 526 485 506 q 522 547 507 547 l 981 547 q 1072 642 1031 594 q 1144 736 1113 689 l 436 736 q 358 710 397 736 q 289 647 319 685 q 239 566 258 608 q 219 490 219 524 q 232 417 219 454 q 269 348 244 379 q 326 297 293 317 q 401 276 360 276 l 679 276 q 694 265 690 276 q 699 242 699 253 l 699 233 m 761 901 l 717 983 l 603 983 l 667 853 q 683 833 674 844 q 703 821 692 821 l 789 821 q 805 827 796 821 q 819 838 814 833 l 969 983 l 843 983 l 761 901 "},"‹":{"ha":240,"x_min":153,"x_max":408,"o":"m 257 379 l 367 454 l 408 568 l 236 456 q 208 433 225 447 q 188 408 192 419 l 156 322 q 157 308 153 315 q 164 297 161 301 l 275 201 l 321 328 l 257 379 "},"Œ":{"ha":1465,"x_min":176,"x_max":1696,"o":"m 176 338 q 216 172 176 238 q 321 69 256 107 q 468 15 386 31 q 636 0 550 0 l 1335 0 q 1352 14 1336 0 q 1389 48 1368 28 q 1431 90 1410 68 q 1465 129 1453 113 q 1472 139 1467 131 q 1483 157 1478 147 q 1494 176 1489 167 q 1501 188 1500 185 l 969 188 l 1000 271 l 1276 271 l 1475 458 l 1154 458 l 1022 331 l 1101 549 l 1529 549 q 1565 571 1540 549 q 1615 624 1589 593 q 1663 685 1640 654 q 1696 736 1686 717 l 539 736 q 400 699 465 736 q 285 604 335 663 q 206 475 235 546 q 176 338 176 404 m 836 549 l 704 188 l 581 188 q 531 204 557 188 q 484 246 506 221 q 449 301 463 271 q 435 357 435 331 q 446 414 435 378 q 468 462 454 438 q 499 506 482 486 q 538 537 517 525 q 581 549 558 549 l 836 549 "},"Ž":{"ha":856,"x_min":32,"x_max":1092,"o":"m 725 0 q 760 22 736 0 q 810 75 785 44 q 859 137 836 106 q 892 188 882 168 l 518 188 l 1092 736 l 396 736 q 349 695 376 724 q 297 636 322 667 q 252 581 271 606 q 232 550 233 556 l 232 549 l 606 549 l 32 0 l 725 0 m 761 901 l 717 983 l 603 983 l 667 853 q 683 833 674 844 q 703 821 692 821 l 789 821 q 805 827 796 821 q 819 838 814 833 l 969 983 l 843 983 l 761 901 "},"‘":{"ha":251,"x_min":228,"x_max":438,"o":"m 433 611 q 436 647 435 625 q 435 688 438 668 q 424 722 432 708 q 400 736 417 736 l 389 736 q 359 723 378 736 q 321 691 340 710 q 284 651 301 672 q 260 611 267 629 l 242 560 q 243 497 228 524 q 296 471 258 471 q 367 497 332 471 q 415 560 401 524 l 433 611 "},"’":{"ha":251,"x_min":251,"x_max":463,"o":"m 257 597 q 253 561 254 582 q 254 520 251 540 q 265 486 257 500 q 290 472 274 472 l 301 472 q 331 485 311 472 q 369 517 350 499 q 406 558 389 536 q 431 597 424 579 l 449 649 q 447 711 463 685 q 393 738 431 738 q 323 711 357 738 q 275 649 289 685 l 257 597 "},"“":{"ha":453,"x_min":229,"x_max":640,"o":"m 435 611 q 438 647 436 625 q 436 688 439 668 q 426 722 433 708 q 401 736 418 736 l 390 736 q 360 723 379 736 q 322 691 342 710 q 285 651 303 672 q 261 611 268 629 l 243 560 q 244 497 229 524 q 297 471 260 471 q 368 497 333 471 q 417 560 403 524 l 435 611 m 636 611 q 639 647 638 625 q 638 688 640 668 q 627 722 635 708 q 603 736 619 736 l 592 736 q 562 723 581 736 q 524 691 543 710 q 487 651 504 672 q 463 611 469 629 l 444 560 q 446 497 431 524 q 499 471 461 471 q 569 497 535 471 q 618 560 604 524 l 636 611 "},"”":{"ha":453,"x_min":251,"x_max":664,"o":"m 458 597 q 454 561 456 582 q 456 520 453 540 q 467 486 458 500 q 492 472 475 472 l 503 472 q 532 485 513 472 q 571 517 551 499 q 608 558 590 536 q 632 597 625 579 l 650 649 q 648 711 664 685 q 594 738 632 738 q 524 711 558 738 q 476 649 490 685 l 458 597 m 257 597 q 253 561 254 582 q 254 520 251 540 q 265 486 257 500 q 290 472 274 472 l 301 472 q 331 485 311 472 q 369 517 350 499 q 406 558 389 536 q 431 597 424 579 l 449 649 q 447 711 463 685 q 393 738 431 738 q 323 711 357 738 q 275 649 289 685 l 257 597 "},"•":{"ha":494,"x_min":168,"x_max":594,"o":"m 172 357 q 176 301 168 331 q 201 246 185 271 q 242 204 218 221 q 293 188 265 188 l 385 188 q 427 199 401 188 q 480 231 453 211 q 531 274 507 250 q 568 322 556 299 q 583 353 581 342 l 589 367 q 592 379 592 381 q 594 406 593 393 q 594 435 594 419 q 589 477 594 457 q 571 513 583 497 q 537 539 558 529 q 483 549 515 549 l 371 549 q 323 537 349 549 q 272 506 297 525 q 226 462 247 486 q 192 414 204 438 q 179 383 185 397 q 172 357 174 368 "},"–":{"ha":501,"x_min":124,"x_max":643,"o":"m 444 271 l 124 271 l 322 458 l 643 458 l 444 271 "},"—":{"ha":600,"x_min":124,"x_max":742,"o":"m 543 271 l 124 271 l 322 458 l 742 458 l 543 271 "},"˜":{"ha":540,"x_min":235,"x_max":782,"o":"m 574 654 l 529 736 l 415 736 q 399 730 408 736 q 385 719 390 724 l 235 574 l 361 574 l 443 656 l 488 574 l 601 574 q 617 580 608 574 q 633 590 626 586 q 719 674 689 644 q 763 717 749 703 q 779 733 776 731 q 782 736 782 736 l 656 736 l 574 654 "},"š":{"ha":917,"x_min":54,"x_max":1144,"o":"m 699 233 l 699 225 q 695 199 699 211 q 671 186 692 186 l 199 186 q 174 162 194 186 q 128 106 153 138 q 83 44 104 75 q 54 0 61 14 l 763 0 q 835 23 800 0 q 898 81 871 46 q 942 156 925 115 q 958 233 958 197 l 958 239 q 947 309 958 271 q 915 380 936 347 q 862 435 893 413 q 790 457 831 457 l 526 457 q 515 462 525 457 q 499 472 504 467 q 490 480 496 475 q 485 486 485 485 l 485 493 q 496 526 485 506 q 522 547 507 547 l 981 547 q 1072 642 1031 594 q 1144 736 1113 689 l 436 736 q 358 710 397 736 q 289 647 319 685 q 239 566 258 608 q 219 490 219 524 q 232 417 219 454 q 269 348 244 379 q 326 297 293 317 q 401 276 360 276 l 679 276 q 694 265 690 276 q 699 242 699 253 l 699 233 m 761 901 l 717 983 l 603 983 l 667 853 q 683 833 674 844 q 703 821 692 821 l 789 821 q 805 827 796 821 q 819 838 814 833 l 969 983 l 843 983 l 761 901 "},"›":{"ha":240,"x_min":110,"x_max":364,"o":"m 261 388 l 151 313 l 110 199 l 282 311 q 310 333 293 319 q 331 358 326 347 l 361 444 q 360 458 364 451 q 354 469 357 465 l 244 567 l 244 565 l 243 565 l 197 439 l 261 388 "},"œ":{"ha":1465,"x_min":176,"x_max":1696,"o":"m 176 338 q 216 172 176 238 q 321 69 256 107 q 468 15 386 31 q 636 0 550 0 l 1335 0 q 1352 14 1336 0 q 1389 48 1368 28 q 1431 90 1410 68 q 1465 129 1453 113 q 1472 139 1467 131 q 1483 157 1478 147 q 1494 176 1489 167 q 1501 188 1500 185 l 969 188 l 1000 271 l 1276 271 l 1475 458 l 1154 458 l 1022 331 l 1101 549 l 1529 549 q 1565 571 1540 549 q 1615 624 1589 593 q 1663 685 1640 654 q 1696 736 1686 717 l 539 736 q 400 699 465 736 q 285 606 335 663 q 206 478 235 549 q 176 340 176 407 l 176 338 m 836 549 l 704 188 l 581 188 q 531 204 557 188 q 484 246 506 221 q 449 301 463 271 q 435 357 435 331 q 446 414 435 378 q 468 462 454 438 q 499 506 482 486 q 538 537 517 525 q 581 549 558 549 l 836 549 "},"ž":{"ha":856,"x_min":32,"x_max":1092,"o":"m 725 0 q 760 22 736 0 q 810 75 785 44 q 859 137 836 106 q 892 188 882 168 l 518 188 l 1092 736 l 396 736 q 349 695 376 724 q 297 636 322 667 q 252 581 271 606 q 232 550 233 556 l 232 549 l 606 549 l 32 0 l 725 0 m 761 901 l 717 983 l 603 983 l 667 853 q 683 833 674 844 q 703 821 692 821 l 789 821 q 805 827 796 821 q 819 838 814 833 l 969 983 l 843 983 l 761 901 "},"Ÿ":{"ha":911,"x_min":293,"x_max":1154,"o":"m 450 350 l 322 0 l 589 0 l 717 350 l 1154 736 l 857 736 l 660 563 l 590 736 l 293 736 l 450 350 m 575 906 q 579 847 563 871 q 633 824 596 824 q 705 847 671 824 q 751 906 739 871 q 747 964 764 940 q 693 988 731 988 q 622 964 656 988 q 575 906 588 940 m 1003 906 q 999 964 1015 940 q 946 988 983 988 q 874 964 908 988 q 826 906 839 940 q 831 847 814 871 q 886 824 849 824 q 957 847 924 824 q 1003 906 990 871 "},"¡":{"ha":344,"x_min":39,"x_max":528,"o":"m 488 499 l 306 0 l 39 0 l 221 499 l 488 499 m 513 639 q 491 601 506 618 q 458 569 476 583 q 417 548 439 556 q 372 540 394 540 q 307 569 328 540 q 301 639 286 599 q 358 708 317 679 q 443 736 399 736 q 508 708 488 736 q 513 639 528 679 "},"¢":{"ha":876,"x_min":176,"x_max":1113,"o":"m 371 -197 l 450 19 q 342 56 392 32 q 255 119 292 81 q 197 211 218 157 q 176 338 176 265 l 176 340 q 206 478 176 407 q 285 606 235 549 q 400 699 335 663 q 539 736 465 736 l 711 736 l 781 928 l 956 928 l 886 736 l 1113 736 q 1031 637 1072 683 q 942 549 990 590 l 818 549 l 686 188 l 913 188 q 840 91 881 140 q 747 0 800 42 l 618 0 l 546 -197 l 371 -197 m 643 549 l 581 549 q 538 537 558 549 q 499 506 517 525 q 468 462 482 486 q 446 414 454 438 q 435 357 435 378 l 435 354 q 460 277 435 317 q 519 211 486 238 l 643 549 "},"£":{"ha":936,"x_min":25,"x_max":915,"o":"m 911 0 l 25 0 l 224 188 l 306 188 l 318 219 q 324 239 321 229 q 335 260 328 249 l 119 260 l 318 447 l 417 447 q 419 458 418 453 q 424 471 421 464 q 438 501 431 486 q 457 532 446 517 q 513 595 478 560 q 588 662 547 631 q 669 715 628 693 q 747 736 711 736 l 844 736 q 853 644 854 692 q 846 547 853 596 l 764 547 q 756 544 763 547 q 742 535 750 540 q 727 526 735 531 q 714 517 719 521 q 712 514 714 517 q 708 510 710 511 l 706 503 q 701 483 703 496 q 700 460 700 471 q 703 454 700 454 l 824 454 l 901 267 l 628 267 q 615 247 621 257 q 607 233 610 238 l 604 226 q 606 222 606 225 q 607 219 607 219 q 621 201 611 213 q 633 189 631 189 l 906 189 q 915 100 915 154 q 911 0 915 51 "},"¤":{"ha":914,"x_min":25,"x_max":1156,"o":"m 906 388 q 871 301 899 346 q 799 222 843 257 l 889 0 l 593 0 l 532 151 l 521 151 l 493 151 l 321 0 l 25 0 l 294 238 l 296 239 q 278 288 283 260 q 279 351 274 315 q 312 438 283 393 q 383 518 340 482 l 294 736 l 592 736 l 651 588 l 675 588 l 690 588 l 858 736 l 1156 736 l 889 501 q 906 451 901 479 q 906 388 911 424 m 451 363 q 456 329 450 347 q 474 297 463 311 q 502 272 486 282 q 538 263 518 263 l 599 263 q 626 269 610 263 q 660 288 643 276 q 693 314 678 300 q 717 342 708 328 q 725 360 722 350 q 731 376 731 371 q 731 410 732 392 q 723 442 731 428 q 699 467 715 457 q 654 476 683 476 l 579 476 q 515 451 549 476 q 464 396 482 425 q 456 378 460 386 q 451 363 451 369 "},"¥":{"ha":911,"x_min":132,"x_max":1154,"o":"m 322 0 l 589 0 l 621 88 l 708 88 l 882 199 l 661 199 l 676 240 l 764 240 l 938 351 l 718 351 l 1154 736 l 857 736 l 660 563 l 590 736 l 293 736 l 449 351 l 361 351 l 188 240 l 410 240 l 394 199 l 306 199 l 132 88 l 354 88 l 322 0 "},"¦":{"ha":344,"x_min":-32,"x_max":643,"o":"m -32 -196 l 376 929 l 643 929 l 235 -196 l -32 -196 "},"§":{"ha":914,"x_min":25,"x_max":1156,"o":"m 906 388 q 901 368 903 378 q 894 349 899 358 q 859 283 883 315 q 799 222 835 250 q 681 172 746 193 q 532 151 617 151 l 493 151 l 321 0 l 25 0 l 296 239 q 278 288 283 260 q 279 351 274 315 q 282 370 279 361 q 288 390 285 379 q 325 457 300 424 q 383 518 350 490 q 513 574 446 560 q 651 588 579 588 l 690 588 l 858 736 l 1156 736 l 889 501 q 906 451 901 479 q 906 388 911 424 m 451 363 q 456 329 450 347 q 474 297 463 311 q 502 272 486 282 q 538 263 518 263 l 599 263 q 626 269 610 263 q 660 288 643 276 q 693 314 678 300 q 717 342 708 328 q 725 360 722 350 q 731 376 731 371 q 731 410 732 392 q 723 442 731 428 q 699 467 715 457 q 654 476 683 476 l 579 476 q 515 451 549 476 q 464 396 482 425 l 454 372 q 451 363 451 364 "},"¨":{"ha":506,"x_min":264,"x_max":717,"o":"m 276 654 q 281 596 264 619 q 335 572 297 572 q 406 596 372 572 q 453 654 440 619 q 449 713 465 689 q 394 736 432 736 q 323 713 357 736 q 276 654 289 689 m 704 654 q 701 713 717 689 q 647 736 685 736 q 575 713 610 736 q 528 654 540 689 q 533 596 515 619 q 588 572 550 572 q 658 596 625 572 q 704 654 692 619 "},"©":{"ha":386,"x_min":268,"x_max":607,"o":"m 493 825 q 561 806 529 825 q 599 749 592 785 q 592 671 607 717 q 543 596 578 631 q 508 563 526 576 q 465 538 489 549 q 382 518 400 518 q 313 538 344 518 q 290 563 299 549 q 276 596 281 576 q 283 671 268 631 q 303 710 290 692 q 332 749 315 729 q 411 806 364 785 q 493 825 458 825 m 485 800 q 416 784 453 800 q 350 736 379 768 q 326 704 335 721 q 310 671 317 688 q 303 608 299 638 q 333 561 308 582 q 392 544 358 544 q 461 561 424 544 q 525 608 494 575 q 565 671 551 636 q 572 736 576 704 q 540 783 568 764 q 485 800 519 800 m 479 647 l 501 640 q 459 599 485 614 q 406 583 433 583 q 356 606 369 583 q 357 671 342 629 q 403 736 372 714 q 471 758 433 758 q 522 710 525 758 l 497 704 q 463 736 493 736 q 417 719 438 736 q 385 671 396 703 q 413 608 361 608 q 479 647 454 608 "},"«":{"ha":428,"x_min":153,"x_max":596,"o":"m 444 379 l 554 454 l 596 568 l 424 456 q 396 433 413 447 q 375 408 379 419 l 343 322 q 344 308 340 315 q 351 297 349 301 l 463 201 l 508 328 l 444 379 m 257 378 l 367 453 l 407 567 l 236 454 q 208 432 225 446 q 188 407 192 418 l 156 321 q 157 307 153 314 q 164 296 161 300 l 274 200 l 321 326 l 257 378 "},"¬":{"ha":657,"x_min":124,"x_max":785,"o":"m 481 136 l 668 136 l 785 458 l 322 458 l 124 271 l 529 271 l 481 136 "},"­":{"ha":442,"x_min":124,"x_max":583,"o":"m 385 271 l 124 271 l 322 458 l 583 458 l 385 271 "},"®":{"ha":386,"x_min":269,"x_max":607,"o":"m 494 826 q 561 807 533 826 q 600 750 593 786 q 592 672 607 714 q 544 597 576 633 q 508 564 528 578 q 465 539 489 550 q 382 519 400 519 q 313 539 344 519 q 290 564 299 550 q 278 597 282 578 q 283 672 269 633 q 303 712 290 693 q 333 750 317 731 q 411 807 365 786 q 494 826 461 826 m 485 801 q 417 785 453 801 q 350 738 381 769 q 310 672 322 706 q 304 610 299 635 q 333 563 308 583 q 392 546 358 546 q 461 563 424 546 q 526 610 493 576 q 565 672 556 643 q 572 738 578 710 q 542 785 568 767 q 485 801 518 801 m 340 589 l 401 754 l 457 754 q 497 749 492 754 q 511 733 511 743 q 511 708 515 722 q 487 677 504 690 q 447 663 469 664 q 462 648 458 657 q 471 621 465 639 l 479 589 l 446 589 l 442 614 q 426 653 436 646 q 408 658 422 658 l 393 658 l 367 589 l 340 589 m 400 681 l 432 681 q 467 688 456 681 q 482 706 478 694 q 475 729 488 724 q 447 731 474 731 l 418 731 l 400 681 "},"¯":{"ha":642,"x_min":225,"x_max":885,"o":"m 686 549 l 225 549 l 424 736 l 885 736 l 686 549 "},"°":{"ha":254,"x_min":264,"x_max":465,"o":"m 276 654 q 281 596 264 619 q 335 572 297 572 q 406 596 372 572 q 453 654 440 619 q 449 713 465 689 q 394 736 432 736 q 323 713 357 736 q 276 654 289 689 "},"±":{"ha":640,"x_min":24,"x_max":814,"o":"m 313 228 l 500 228 l 549 363 l 615 363 l 814 550 l 617 550 l 669 693 l 482 693 l 429 550 l 354 550 l 156 363 l 361 363 l 313 228 m 24 0 l 483 0 l 682 188 l 222 188 l 24 0 "},"´":{"ha":236,"x_min":251,"x_max":454,"o":"m 336 694 q 368 723 351 710 q 400 736 385 736 q 431 725 415 736 q 440 667 454 701 q 428 649 436 657 q 413 632 421 640 l 379 600 q 356 583 369 592 q 328 569 343 575 q 300 558 314 563 q 276 554 286 554 q 264 557 267 554 l 258 563 q 252 578 251 568 q 258 601 253 589 q 278 635 265 621 q 303 664 292 650 l 336 694 "},"µ":{"ha":1163,"x_min":175,"x_max":1269,"o":"m 1269 392 l 1169 383 q 1194 281 1203 304 l 1189 269 l 1097 289 l 1046 168 l 961 204 l 849 100 l 800 151 l 618 67 l 638 100 l 626 135 l 424 92 l 468 151 l 261 161 l 340 210 l 176 256 l 275 299 l 175 375 l 275 383 l 250 460 l 256 496 l 350 486 l 407 607 q 468 569 444 569 q 490 575 481 569 l 607 675 l 646 624 l 813 701 l 824 693 l 811 642 l 1019 675 l 982 615 l 1185 615 l 1107 564 l 1263 521 l 1265 503 l 1257 503 l 1172 479 l 1268 408 l 1269 392 m 1146 453 l 1115 461 l 1068 346 l 1089 342 l 1146 453 m 1075 294 l 1057 303 l 1036 289 l 1046 269 l 1075 294 m 1021 303 l 1076 453 l 1057 461 l 1013 356 l 974 453 l 919 301 l 940 303 l 968 378 q 1021 303 990 303 m 896 303 l 936 417 q 919 464 944 464 q 899 460 904 464 q 835 386 863 424 q 789 310 808 349 l 817 310 q 864 346 846 346 q 882 310 879 346 l 896 303 m 831 461 l 801 454 l 733 301 l 769 313 l 831 461 m 707 297 l 761 447 l 740 454 l 699 350 l 657 447 l 604 294 l 626 299 l 653 369 q 707 297 674 297 m 628 403 q 590 453 632 453 l 582 453 l 576 453 q 478 319 513 421 q 514 294 475 294 q 524 295 518 294 q 536 297 529 296 q 628 403 572 297 m 518 458 q 389 369 414 442 l 386 361 q 383 350 382 351 q 410 283 371 283 q 440 290 413 283 l 447 315 q 434 313 440 314 q 421 313 428 313 q 404 342 392 313 q 446 403 415 374 q 489 425 472 425 q 501 421 494 425 l 518 458 m 406 454 l 381 449 l 310 294 l 344 306 l 406 454 m 899 378 l 857 378 l 901 429 l 899 378 m 593 382 q 565 336 586 363 q 526 324 536 324 q 517 360 504 324 l 521 369 q 578 419 556 419 q 594 399 594 419 q 593 382 597 396 "},"¶":{"ha":856,"x_min":146,"x_max":982,"o":"m 982 453 l 951 461 l 904 346 l 925 342 l 982 453 m 911 294 l 893 303 l 872 289 l 882 269 l 911 294 m 857 303 l 913 453 l 893 461 l 849 356 l 810 453 l 756 301 l 776 303 l 804 378 q 857 303 826 303 m 732 303 l 772 417 q 756 464 781 464 q 735 460 740 464 q 672 386 699 424 q 625 310 644 349 l 653 310 q 700 346 682 346 q 718 310 715 346 l 732 303 m 667 461 l 638 454 l 569 301 l 606 313 l 667 461 m 543 297 l 597 447 l 576 454 l 535 350 l 493 447 l 440 294 l 463 299 l 489 369 q 543 297 510 297 m 464 403 q 426 453 468 453 l 418 453 l 413 453 q 314 319 349 421 q 350 294 311 294 q 360 295 354 294 q 372 297 365 296 q 464 403 408 297 m 354 458 q 225 369 250 442 l 222 361 q 219 350 218 351 q 246 283 207 283 q 276 290 249 283 l 283 315 q 270 313 276 314 q 257 313 264 313 q 240 342 228 313 q 282 403 251 374 q 325 425 308 425 q 338 421 331 425 l 354 458 m 242 454 l 217 449 l 146 294 l 181 306 l 242 454 m 735 378 l 693 378 l 738 429 l 735 378 m 429 382 q 401 336 422 363 q 363 324 372 324 q 353 360 340 324 l 357 369 q 414 419 392 419 q 431 399 431 419 q 429 382 433 396 "},"·":{"ha":254,"x_min":176,"x_max":364,"o":"m 182 392 q 176 364 176 382 q 193 325 176 340 q 239 310 210 310 q 311 333 276 310 q 358 392 346 357 q 364 418 364 403 q 347 458 364 442 q 299 474 329 474 q 228 450 261 474 q 182 392 194 426 "},"¸":{"ha":244,"x_min":-215,"x_max":208,"o":"m -215 -161 l 147 -161 l 208 8 l 43 8 l 28 -33 l -46 -33 l -215 -161 "},"»":{"ha":428,"x_min":111,"x_max":554,"o":"m 263 388 l 153 313 l 111 199 l 283 311 q 311 333 294 319 q 332 358 328 347 l 363 444 q 362 458 365 451 q 356 469 358 465 l 244 565 l 199 439 l 263 388 m 450 389 l 340 314 l 299 200 l 471 313 q 499 335 482 321 q 519 360 515 349 l 551 446 q 550 460 554 453 q 543 471 546 467 l 432 567 l 386 440 l 450 389 "},"¿":{"ha":908,"x_min":85,"x_max":1054,"o":"m 983 500 q 922 431 961 468 q 836 360 882 393 q 743 306 790 328 q 660 285 696 285 l 467 285 q 449 277 465 285 q 422 264 432 269 q 408 256 417 261 q 400 250 400 251 l 394 243 q 383 225 388 236 q 379 204 379 214 q 392 189 379 189 l 944 189 q 910 140 931 165 q 867 89 889 114 q 822 41 844 64 q 782 0 800 18 l 168 0 q 104 31 124 0 q 85 106 85 61 q 97 178 85 142 q 131 246 108 215 q 197 319 156 281 q 286 391 239 358 q 382 444 333 424 q 472 465 431 465 l 679 465 q 744 480 722 465 q 768 499 765 494 l 768 500 l 983 500 m 1047 639 q 1026 601 1040 618 q 992 569 1011 583 q 951 548 974 556 q 907 540 929 540 q 851 559 871 540 q 831 607 831 578 q 836 639 831 628 q 892 708 851 679 q 978 736 933 736 q 1034 718 1014 736 q 1054 672 1054 700 q 1047 639 1054 663 "},"À":{"ha":1049,"x_min":28,"x_max":1024,"o":"m 465 186 l 465 200 l 699 513 l 747 186 l 465 186 m 776 0 l 1024 0 l 932 596 q 922 637 928 613 q 907 683 915 661 q 887 721 899 706 q 861 736 875 736 l 628 736 q 603 726 618 736 q 574 702 589 715 q 547 675 560 689 q 531 653 535 661 l 31 14 l 31 10 q 28 0 31 11 l 615 0 q 646 26 625 4 q 688 75 667 49 q 727 125 710 101 q 747 157 744 149 l 776 0 m 835 924 l 824 954 q 813 983 821 969 q 790 996 806 996 q 751 985 781 996 q 700 926 714 961 q 698 908 696 917 q 703 892 700 900 l 711 860 q 740 828 718 842 q 781 814 761 814 q 796 817 793 814 l 804 822 q 822 838 815 828 q 835 861 829 849 q 838 895 842 881 q 835 924 835 910 "},"Á":{"ha":1049,"x_min":28,"x_max":1024,"o":"m 465 186 l 465 200 l 699 513 l 747 186 l 465 186 m 776 0 l 1024 0 l 932 596 q 922 637 928 613 q 907 683 915 661 q 887 721 899 706 q 861 736 875 736 l 628 736 q 603 726 618 736 q 574 702 589 715 q 547 675 560 689 q 531 653 535 661 l 31 14 l 31 10 q 28 0 31 11 l 615 0 q 646 26 625 4 q 688 75 667 49 q 727 125 710 101 q 747 157 744 149 l 776 0 m 743 925 q 719 897 733 911 q 699 863 706 882 q 694 840 694 850 q 700 824 693 829 l 704 818 q 718 815 707 815 q 769 829 738 815 q 821 861 801 843 l 853 893 q 869 910 861 901 q 881 928 878 918 q 871 986 894 963 q 840 997 856 997 q 808 984 825 997 q 776 956 792 971 l 743 925 "},"Â":{"ha":1049,"x_min":28,"x_max":1024,"o":"m 465 186 l 465 200 l 699 513 l 747 186 l 465 186 m 776 0 l 1024 0 l 932 596 q 922 637 928 613 q 907 683 915 661 q 887 721 899 706 q 861 736 875 736 l 628 736 q 603 726 618 736 q 574 702 589 715 q 547 675 560 689 q 531 653 535 661 l 31 14 l 31 10 q 28 0 31 11 l 615 0 q 646 26 625 4 q 688 75 667 49 q 727 125 710 101 q 747 157 744 149 l 776 0 m 788 906 l 835 824 l 949 824 l 883 954 q 867 974 878 963 q 846 986 857 986 l 760 986 q 745 980 753 986 q 731 969 738 974 l 582 824 q 708 824 581 822 l 788 906 "},"Ã":{"ha":1049,"x_min":28,"x_max":1086,"o":"m 465 186 l 465 200 l 699 513 l 747 186 l 465 186 m 776 0 l 1024 0 l 932 596 q 922 637 928 613 q 907 683 915 661 q 887 721 899 706 q 861 736 875 736 l 628 736 q 603 726 618 736 q 574 702 589 715 q 547 675 560 689 q 531 653 535 661 l 31 14 l 31 10 q 28 0 31 11 l 615 0 q 646 26 625 4 q 688 75 667 49 q 727 125 710 101 q 747 157 744 149 l 776 0 m 879 904 l 833 986 l 719 986 q 704 980 713 986 q 689 969 696 974 l 540 824 l 667 824 l 747 906 l 793 824 l 907 824 q 923 830 914 824 q 938 840 932 836 q 1024 924 993 894 q 1068 967 1054 953 q 1084 983 1082 981 q 1086 986 1086 986 l 960 986 l 879 904 "},"Ä":{"ha":1049,"x_min":28,"x_max":1024,"o":"m 465 186 l 465 200 l 699 513 l 747 186 l 465 186 m 776 0 l 1024 0 l 932 596 q 922 637 928 613 q 907 683 915 661 q 887 721 899 706 q 861 736 875 736 l 628 736 q 603 726 618 736 q 574 702 589 715 q 547 675 560 689 q 531 653 535 661 l 31 14 l 31 10 q 28 0 31 11 l 615 0 q 646 26 625 4 q 688 75 667 49 q 727 125 710 101 q 747 157 744 149 l 776 0 m 582 907 q 585 849 569 872 q 639 825 601 825 q 711 849 676 825 q 758 907 746 872 q 753 965 771 942 q 699 989 736 989 q 628 965 661 989 q 582 907 594 942 m 1010 907 q 1006 965 1022 942 q 951 989 989 989 q 880 965 914 989 q 833 907 846 942 q 838 849 821 872 q 892 825 854 825 q 963 849 929 825 q 1010 907 997 872 "},"Å":{"ha":1049,"x_min":28,"x_max":1024,"o":"m 465 186 l 465 200 l 699 513 l 747 186 l 465 186 m 776 0 l 1024 0 l 932 596 q 922 637 928 613 q 907 683 915 661 q 887 721 899 706 q 861 736 875 736 l 628 736 q 603 726 618 736 q 574 702 589 715 q 547 675 560 689 q 531 653 535 661 l 31 14 l 31 10 q 28 0 31 11 l 615 0 q 646 26 625 4 q 688 75 667 49 q 727 125 710 101 q 747 157 744 149 l 776 0 m 710 907 q 713 849 697 872 q 767 825 729 825 q 839 849 804 825 q 886 907 874 872 q 881 965 899 942 q 826 989 864 989 q 756 965 789 989 q 710 907 722 942 "},"Æ":{"ha":1615,"x_min":28,"x_max":1839,"o":"m 1047 736 l 951 472 l 932 596 q 924 638 931 614 q 908 683 918 661 q 886 721 899 706 q 861 736 874 736 l 628 736 q 603 726 618 736 q 574 702 589 715 q 547 675 560 689 q 531 653 535 661 l 31 14 l 31 10 q 28 0 31 11 l 615 0 q 646 26 625 4 q 688 75 667 49 q 727 125 710 101 q 747 157 744 149 l 776 0 l 1478 0 q 1495 14 1479 0 q 1532 48 1511 28 q 1574 90 1553 68 q 1608 129 1596 113 q 1615 139 1610 131 q 1626 157 1621 147 q 1638 176 1632 167 q 1644 188 1643 185 l 1113 188 l 1143 271 l 1419 271 l 1618 458 l 1297 458 l 1165 331 l 1244 549 l 1672 549 q 1708 571 1683 549 q 1758 624 1732 593 q 1806 685 1783 654 q 1839 736 1829 717 l 1047 736 m 465 200 l 699 513 l 747 186 l 465 186 l 465 200 "},"Ç":{"ha":876,"x_min":150,"x_max":1113,"o":"m 150 -161 l 319 -33 l 393 -33 l 415 28 q 320 68 364 43 q 244 131 276 93 q 194 219 213 168 q 176 338 176 271 q 206 475 176 404 q 285 604 235 546 q 400 699 335 663 q 539 736 465 736 l 1113 736 q 1031 637 1072 683 q 942 549 990 590 l 581 549 q 538 537 558 549 q 499 506 517 525 q 468 462 482 486 q 446 414 454 438 q 435 357 435 378 q 449 301 435 331 q 484 246 463 271 q 531 204 506 221 q 581 188 557 188 l 913 188 q 840 91 881 140 q 747 0 800 42 l 636 0 l 603 0 l 588 0 q 571 1 576 0 l 513 -161 l 150 -161 "},"È":{"ha":868,"x_min":39,"x_max":1099,"o":"m 39 0 l 738 0 q 755 14 739 0 q 792 48 771 28 q 834 90 813 68 q 868 129 856 113 q 875 139 869 131 q 886 157 881 147 q 897 176 892 167 q 904 188 903 185 l 372 188 l 403 271 l 679 271 l 878 458 l 557 458 l 425 331 l 504 549 l 932 549 q 967 571 943 549 q 1017 624 992 593 q 1066 685 1043 654 q 1099 736 1089 717 l 307 736 l 39 0 m 764 961 q 753 990 760 976 q 731 1003 746 1003 q 692 992 721 1003 q 640 933 651 969 q 638 915 636 924 q 642 899 639 907 l 651 867 q 680 835 658 849 q 721 821 701 821 q 736 824 725 821 l 744 829 q 763 845 756 835 q 774 868 769 856 q 778 902 781 888 q 775 931 775 917 l 764 961 "},"É":{"ha":868,"x_min":39,"x_max":1099,"o":"m 39 0 l 738 0 q 755 14 739 0 q 792 48 771 28 q 834 90 813 68 q 868 129 856 113 q 875 139 869 131 q 886 157 881 147 q 897 176 892 167 q 904 188 903 185 l 372 188 l 403 271 l 679 271 l 878 458 l 557 458 l 425 331 l 504 549 l 932 549 q 967 571 943 549 q 1017 624 992 593 q 1066 685 1043 654 q 1099 736 1089 717 l 307 736 l 39 0 m 685 932 q 660 903 674 918 q 640 869 647 889 q 635 846 635 860 q 642 831 635 838 l 646 825 q 658 822 649 822 q 682 826 668 822 q 710 837 696 831 q 738 851 725 843 q 761 868 751 860 l 794 900 q 811 917 803 908 q 822 935 819 925 q 813 993 836 969 q 782 1004 797 1004 q 750 991 767 1004 q 718 963 733 978 l 685 932 "},"Ê":{"ha":868,"x_min":39,"x_max":1099,"o":"m 39 0 l 738 0 q 755 14 739 0 q 792 48 771 28 q 834 90 813 68 q 868 129 856 113 q 875 139 869 131 q 886 157 881 147 q 897 176 892 167 q 904 188 903 185 l 372 188 l 403 271 l 679 271 l 878 458 l 557 458 l 425 331 l 504 549 l 932 549 q 967 571 943 549 q 1017 624 992 593 q 1066 685 1043 654 q 1099 736 1089 717 l 307 736 l 39 0 m 733 910 l 778 828 l 892 828 l 826 958 q 812 978 821 967 q 792 990 803 990 l 706 990 q 690 984 699 990 q 674 974 681 978 l 525 828 l 651 828 l 733 910 "},"Ë":{"ha":868,"x_min":39,"x_max":1099,"o":"m 39 0 l 738 0 q 755 14 739 0 q 792 48 771 28 q 834 90 813 68 q 868 129 856 113 q 875 139 869 131 q 886 157 881 147 q 897 176 892 167 q 904 188 903 185 l 372 188 l 403 271 l 679 271 l 878 458 l 557 458 l 425 331 l 504 549 l 932 549 q 967 571 943 549 q 1017 624 992 593 q 1066 685 1043 654 q 1099 736 1089 717 l 307 736 l 39 0 m 543 907 q 547 849 531 872 q 600 825 563 825 q 672 849 638 825 q 719 907 707 872 q 715 965 732 942 q 660 989 697 989 q 589 965 622 989 q 543 907 556 942 m 971 907 q 967 965 983 942 q 913 989 950 989 q 841 965 875 989 q 794 907 807 942 q 799 849 782 872 q 853 825 815 825 q 924 849 890 825 q 971 907 958 872 "},"Ì":{"ha":344,"x_min":39,"x_max":574,"o":"m 544 925 l 533 956 q 523 984 531 971 q 500 997 515 997 q 461 986 490 997 q 410 928 424 963 q 408 910 407 918 q 413 893 410 901 l 422 861 q 450 829 428 843 q 492 815 472 815 q 506 818 503 815 l 515 824 q 533 840 526 829 q 544 863 540 850 q 549 897 551 882 q 544 925 546 911 m 307 736 l 39 0 l 306 0 l 574 736 l 307 736 "},"Í":{"ha":344,"x_min":39,"x_max":601,"o":"m 306 0 l 574 736 l 307 736 l 39 0 l 306 0 m 450 928 q 426 899 439 914 q 406 865 413 885 q 400 842 400 856 q 407 826 400 833 l 411 821 q 424 818 414 818 q 447 822 433 818 q 476 833 461 826 q 503 847 490 839 q 526 864 517 856 l 560 896 q 576 913 568 904 q 588 931 585 921 q 578 989 601 965 q 547 1000 563 1000 q 515 987 532 1000 q 483 958 499 974 l 450 928 "},"Î":{"ha":344,"x_min":39,"x_max":657,"o":"m 306 0 l 574 736 l 307 736 l 39 0 l 306 0 m 497 908 l 543 826 l 657 826 l 592 957 q 576 977 586 965 q 556 989 567 989 l 469 989 q 453 983 463 989 q 439 972 444 976 l 290 826 l 417 826 l 497 908 "},"Ï":{"ha":344,"x_min":39,"x_max":732,"o":"m 306 0 l 574 736 l 307 736 l 39 0 l 306 0 m 292 907 q 295 849 279 872 q 349 825 311 825 q 421 849 386 825 q 468 907 456 872 q 463 965 481 942 q 408 989 446 989 q 338 965 371 989 q 292 907 304 942 m 719 907 q 715 965 732 942 q 661 989 699 989 q 590 965 624 989 q 543 907 556 942 q 547 849 531 872 q 601 825 564 825 q 673 849 639 825 q 719 907 707 872 "},"Ð":{"ha":1074,"x_min":124,"x_max":1229,"o":"m 1135 338 q 1207 475 1185 404 q 1221 603 1229 546 q 1174 699 1213 661 q 1064 736 1135 736 l 460 736 l 358 458 l 322 458 l 124 271 l 290 271 l 192 0 l 538 0 q 714 19 633 0 q 865 78 794 38 q 1002 183 936 118 q 1135 338 1068 247 m 597 271 l 796 458 l 628 458 l 661 549 l 886 549 q 923 533 913 549 q 933 493 933 517 q 917 414 933 457 q 899 382 910 396 q 881 357 889 368 q 822 301 861 331 q 738 246 783 271 q 647 204 692 221 q 571 188 601 188 l 529 188 l 560 271 l 597 271 "},"Ñ":{"ha":908,"x_min":39,"x_max":1138,"o":"m 306 0 l 456 414 l 533 0 l 869 0 l 1138 736 l 874 736 l 722 322 l 643 736 l 307 736 l 39 0 l 306 0 m 822 904 l 776 986 l 663 986 q 647 980 656 986 q 632 969 639 974 l 483 824 l 610 824 l 690 906 l 736 824 l 850 824 q 866 830 857 824 q 881 840 875 836 q 967 924 936 894 q 1011 967 997 953 q 1027 983 1025 981 q 1029 986 1029 986 l 903 986 l 822 904 "},"Ò":{"ha":1001,"x_min":147,"x_max":1122,"o":"m 424 357 q 431 383 425 368 q 443 414 436 397 q 477 462 456 438 q 524 506 499 486 q 574 537 549 525 q 622 549 600 549 l 735 549 q 788 539 767 549 q 822 513 810 529 q 840 477 835 497 q 846 435 846 457 q 845 406 846 419 q 843 379 844 393 q 840 367 843 381 l 835 353 q 819 322 832 342 q 783 274 807 299 q 731 231 758 250 q 678 199 704 211 q 636 188 653 188 l 544 188 q 493 204 517 188 q 453 246 469 221 q 428 301 436 271 q 424 357 419 331 m 1107 399 q 1103 554 1122 490 q 1040 658 1085 618 q 927 717 996 699 q 774 736 858 736 l 590 736 q 444 699 517 736 q 313 604 372 663 q 212 475 253 546 q 161 338 171 404 q 169 172 147 238 q 238 69 190 107 q 357 15 286 31 q 513 0 428 0 l 651 0 q 813 37 735 0 q 952 132 890 74 q 1056 261 1014 190 q 1107 399 1097 332 m 863 958 q 852 987 860 974 q 829 1000 844 1000 q 790 989 819 1000 q 739 931 753 965 q 738 913 736 921 q 742 896 739 904 l 750 864 q 778 832 757 846 q 819 818 800 818 q 835 821 832 818 l 844 826 q 861 842 854 832 q 874 865 868 853 q 877 899 881 885 q 874 928 874 914 l 863 958 "},"Ó":{"ha":1001,"x_min":147,"x_max":1122,"o":"m 424 357 q 431 383 425 368 q 443 414 436 397 q 477 462 456 438 q 524 506 499 486 q 574 537 549 525 q 622 549 600 549 l 735 549 q 788 539 767 549 q 822 513 810 529 q 840 477 835 497 q 846 435 846 457 q 845 406 846 419 q 843 379 844 393 q 840 367 843 381 l 835 353 q 819 322 832 342 q 783 274 807 299 q 731 231 758 250 q 678 199 704 211 q 636 188 653 188 l 544 188 q 493 204 517 188 q 453 246 469 221 q 428 301 436 271 q 424 357 419 331 m 1107 399 q 1103 554 1122 490 q 1040 658 1085 618 q 927 717 996 699 q 774 736 858 736 l 590 736 q 444 699 517 736 q 313 604 372 663 q 212 475 253 546 q 161 338 171 404 q 169 172 147 238 q 238 69 190 107 q 357 15 286 31 q 513 0 428 0 l 651 0 q 813 37 735 0 q 952 132 890 74 q 1056 261 1014 190 q 1107 399 1097 332 m 774 928 q 749 899 763 914 q 729 865 736 885 q 724 842 724 856 q 731 826 724 833 l 735 821 q 747 818 738 818 q 771 822 757 818 q 799 833 785 826 q 827 847 814 839 q 850 864 840 856 l 883 896 q 900 913 892 904 q 911 931 908 921 q 901 989 925 965 q 871 1000 886 1000 q 839 987 856 1000 q 807 958 822 974 l 774 928 "},"Ô":{"ha":1001,"x_min":147,"x_max":1122,"o":"m 424 357 q 431 383 425 368 q 443 414 436 397 q 477 462 456 438 q 524 506 499 486 q 574 537 549 525 q 622 549 600 549 l 735 549 q 788 539 767 549 q 822 513 810 529 q 840 477 835 497 q 846 435 846 457 q 845 406 846 419 q 843 379 844 393 q 840 367 843 381 l 835 353 q 819 322 832 342 q 783 274 807 299 q 731 231 758 250 q 678 199 704 211 q 636 188 653 188 l 544 188 q 493 204 517 188 q 453 246 469 221 q 428 301 436 271 q 424 357 419 331 m 1107 399 q 1103 554 1122 490 q 1040 658 1085 618 q 927 717 996 699 q 774 736 858 736 l 590 736 q 444 699 517 736 q 313 604 372 663 q 212 475 253 546 q 161 338 171 404 q 169 172 147 238 q 238 69 190 107 q 357 15 286 31 q 513 0 428 0 l 651 0 q 813 37 735 0 q 952 132 890 74 q 1056 261 1014 190 q 1107 399 1097 332 m 806 907 l 850 825 l 964 825 l 899 956 q 884 976 893 964 q 864 988 875 988 l 778 988 q 762 981 771 988 q 746 971 753 975 l 597 825 l 724 825 l 806 907 "},"Õ":{"ha":1001,"x_min":147,"x_max":1122,"o":"m 1107 399 q 1103 554 1122 490 q 1040 658 1085 618 q 927 717 996 699 q 774 736 858 736 l 590 736 q 444 699 517 736 q 313 604 372 663 q 212 475 253 546 q 161 338 171 404 q 169 172 147 238 q 238 69 190 107 q 357 15 286 31 q 513 0 428 0 l 651 0 q 813 37 735 0 q 952 132 890 74 q 1056 261 1014 190 q 1107 399 1097 332 m 424 357 q 431 383 425 368 q 443 414 436 397 q 477 462 456 438 q 524 506 499 486 q 574 537 549 525 q 622 549 600 549 l 735 549 q 788 539 767 549 q 822 513 810 529 q 840 477 835 497 q 846 435 846 457 q 845 406 846 419 q 843 379 844 393 q 840 367 843 381 l 835 353 q 819 322 832 342 q 783 274 807 299 q 731 231 758 250 q 678 199 704 211 q 636 188 653 188 l 544 188 q 493 204 517 188 q 453 246 469 221 q 428 301 436 271 q 424 357 419 331 m 872 904 l 826 986 l 713 986 q 697 980 706 986 q 682 969 689 974 l 533 824 l 660 824 l 740 906 l 786 824 l 900 824 q 916 830 907 824 q 931 840 925 836 q 1017 924 986 894 q 1061 967 1047 953 q 1077 983 1075 981 q 1079 986 1079 986 l 953 986 l 872 904 "},"Ö":{"ha":1001,"x_min":147,"x_max":1122,"o":"m 424 357 q 431 383 425 368 q 443 414 436 397 q 477 462 456 438 q 524 506 499 486 q 574 537 549 525 q 622 549 600 549 l 735 549 q 788 539 767 549 q 822 513 810 529 q 840 477 835 497 q 846 435 846 457 q 845 406 846 419 q 843 379 844 393 q 840 367 843 381 l 835 353 q 819 322 832 342 q 783 274 807 299 q 731 231 758 250 q 678 199 704 211 q 636 188 653 188 l 544 188 q 493 204 517 188 q 453 246 469 221 q 428 301 436 271 q 424 357 419 331 m 1107 399 q 1103 554 1122 490 q 1040 658 1085 618 q 927 717 996 699 q 774 736 858 736 l 590 736 q 444 699 517 736 q 313 604 372 663 q 212 475 253 546 q 161 338 171 404 q 169 172 147 238 q 238 69 190 107 q 357 15 286 31 q 513 0 428 0 l 651 0 q 813 37 735 0 q 952 132 890 74 q 1056 261 1014 190 q 1107 399 1097 332 m 607 907 q 610 849 594 872 q 664 825 626 825 q 736 849 701 825 q 783 907 771 872 q 778 965 796 942 q 724 989 761 989 q 653 965 686 989 q 607 907 619 942 m 1035 907 q 1031 965 1047 942 q 976 989 1014 989 q 905 965 939 989 q 858 907 871 942 q 863 849 846 872 q 917 825 879 825 q 988 849 954 825 q 1035 907 1022 872 "},"×":{"ha":554,"x_min":88,"x_max":729,"o":"m 260 174 l 88 174 l 322 364 l 228 553 l 400 553 l 447 464 l 557 553 l 729 553 l 496 364 l 592 174 l 419 174 l 374 264 l 260 174 "},"Ø":{"ha":1001,"x_min":147,"x_max":1122,"o":"m 1107 399 q 1103 554 1122 490 q 1040 658 1085 618 q 927 717 996 699 q 774 736 858 736 l 590 736 q 444 699 517 736 q 313 604 372 663 q 212 475 253 546 q 161 338 171 404 q 169 172 147 238 q 238 69 190 107 q 357 15 286 31 q 513 0 428 0 l 651 0 q 813 37 735 0 q 952 132 890 74 q 1056 261 1014 190 q 1107 399 1097 332 m 843 379 q 840 367 843 381 l 835 353 q 819 322 832 342 q 783 274 807 299 q 731 231 758 250 q 678 199 704 211 q 636 188 653 188 l 544 188 q 493 204 515 188 l 843 454 q 843 379 847 414 m 424 357 q 431 383 425 368 q 443 414 436 397 q 477 462 456 438 q 524 506 499 486 q 574 537 549 525 q 622 549 600 549 l 735 549 q 779 542 751 549 l 428 294 q 422 326 424 310 q 424 357 421 342 "},"Ù":{"ha":947,"x_min":129,"x_max":1176,"o":"m 197 428 q 174 344 185 381 q 157 272 164 308 q 211 62 129 124 q 488 0 293 0 l 650 0 q 793 26 733 0 q 899 101 853 51 q 981 224 944 151 q 1051 393 1017 297 l 1176 736 l 913 736 l 763 324 q 736 281 753 304 q 697 236 719 257 q 647 201 675 215 q 585 188 618 188 l 517 188 q 447 228 465 188 q 438 335 428 268 q 440 349 438 339 q 456 399 443 360 q 494 516 468 438 q 569 736 521 594 l 307 736 l 197 428 m 838 957 q 826 985 833 972 q 804 999 819 999 q 765 988 794 999 q 713 929 726 964 q 711 911 710 919 q 715 894 713 903 l 725 863 q 753 831 732 844 q 794 817 775 817 q 810 819 799 817 l 818 825 q 836 841 829 831 q 847 864 843 851 q 851 898 854 883 q 849 926 849 913 l 838 957 "},"Ú":{"ha":947,"x_min":129,"x_max":1176,"o":"m 197 428 q 174 344 185 381 q 157 272 164 308 q 211 62 129 124 q 488 0 293 0 l 650 0 q 793 26 733 0 q 899 101 853 51 q 981 224 944 151 q 1051 393 1017 297 l 1176 736 l 913 736 l 763 324 q 736 281 753 304 q 697 236 719 257 q 647 201 675 215 q 585 188 618 188 l 517 188 q 447 228 465 188 q 438 335 428 268 q 440 349 438 339 q 456 399 443 360 q 494 516 468 438 q 569 736 521 594 l 307 736 l 197 428 m 756 926 q 731 898 744 913 q 710 864 717 883 q 705 841 706 851 q 711 825 704 831 l 717 819 q 729 817 717 817 q 753 821 739 817 q 781 831 767 825 q 809 846 796 838 q 832 863 822 854 l 864 894 q 881 911 872 903 q 892 929 889 919 q 883 988 906 964 q 853 999 868 999 q 821 985 838 999 q 789 957 804 972 l 756 926 "},"Û":{"ha":947,"x_min":129,"x_max":1176,"o":"m 197 428 q 174 344 185 381 q 157 272 164 308 q 211 62 129 124 q 488 0 293 0 l 650 0 q 793 26 733 0 q 899 101 853 51 q 981 224 944 151 q 1051 393 1017 297 l 1176 736 l 913 736 l 763 324 q 736 281 753 304 q 697 236 719 257 q 647 201 675 215 q 585 188 618 188 l 517 188 q 447 228 465 188 q 438 335 428 268 q 440 349 438 339 q 456 399 443 360 q 494 516 468 438 q 569 736 521 594 l 307 736 l 197 428 m 782 907 l 828 825 l 942 825 l 876 956 q 861 976 871 964 q 840 988 851 988 l 754 988 q 739 981 747 988 q 724 971 731 975 l 575 825 l 701 825 l 782 907 "},"Ü":{"ha":947,"x_min":129,"x_max":1176,"o":"m 586 906 q 590 847 574 871 q 644 824 607 824 q 716 847 682 824 q 763 906 750 871 q 758 964 775 940 q 704 988 742 988 q 633 964 667 988 q 586 906 599 940 m 197 428 q 174 344 185 381 q 157 272 164 308 q 211 62 129 124 q 488 0 293 0 l 650 0 q 793 26 733 0 q 899 101 853 51 q 981 224 944 151 q 1051 393 1017 297 l 1176 736 l 913 736 l 763 324 q 736 281 753 304 q 697 236 719 257 q 647 201 675 215 q 585 188 618 188 l 517 188 q 447 228 465 188 q 438 335 428 268 q 440 349 438 339 q 456 399 443 360 q 494 516 468 438 q 569 736 521 594 l 307 736 l 197 428 m 1014 906 q 1010 964 1026 940 q 957 988 994 988 q 885 964 919 988 q 838 906 850 940 q 842 847 825 871 q 897 824 860 824 q 968 847 935 824 q 1014 906 1001 871 "},"Ý":{"ha":911,"x_min":293,"x_max":1154,"o":"m 450 350 l 322 0 l 589 0 l 717 350 l 1154 736 l 857 736 l 660 563 l 590 736 l 293 736 l 450 350 m 742 926 q 717 898 731 913 q 696 864 703 883 q 691 841 692 851 q 697 825 690 831 l 703 819 q 715 817 703 817 q 739 821 725 817 q 767 831 753 825 q 795 846 782 838 q 818 863 808 854 l 850 894 q 867 911 858 903 q 878 929 875 919 q 869 988 892 964 q 839 999 854 999 q 807 985 824 999 q 775 957 790 972 l 742 926 "},"Þ":{"ha":944,"x_min":39,"x_max":1035,"o":"m 39 0 l 306 0 l 351 128 l 742 128 q 840 147 789 128 q 935 202 892 167 q 1006 286 978 238 q 1035 393 1035 335 q 1024 456 1033 421 q 999 523 1015 492 q 956 576 982 554 q 894 597 929 597 l 524 597 l 574 736 l 307 736 l 39 0 m 454 408 l 739 408 q 752 397 742 408 q 767 378 763 385 q 767 375 767 378 q 768 371 768 372 l 765 364 q 760 352 764 360 q 750 336 756 344 q 740 322 744 328 q 733 315 735 315 l 511 315 l 378 197 l 454 408 "},"ß":{"ha":932,"x_min":-32,"x_max":1060,"o":"m -32 -196 l 240 553 q 306 646 268 600 q 385 736 343 692 l 919 736 q 982 715 956 736 q 1026 662 1008 693 q 1051 595 1043 631 q 1060 532 1060 560 l 1060 529 q 1051 476 1060 503 q 1026 424 1042 449 q 992 382 1011 400 q 953 356 972 364 q 972 329 958 344 q 988 286 986 314 q 980 241 988 267 q 965 197 972 215 l 960 182 q 919 99 939 133 q 867 42 899 64 q 784 10 835 21 q 651 0 733 0 l 333 0 q 403 101 369 53 q 475 189 436 149 l 633 189 q 640 192 633 189 q 656 201 647 196 q 672 210 664 206 q 685 219 681 215 q 687 222 685 219 q 690 226 689 225 l 693 233 q 697 247 696 238 q 697 267 697 257 l 494 267 l 708 454 l 758 454 q 765 460 760 454 q 775 475 769 467 q 785 491 781 483 q 792 503 790 499 l 794 510 q 792 514 793 511 q 792 517 792 517 q 777 535 788 524 q 764 547 767 547 l 504 547 l 235 -196 l -32 -196 "},"à":{"ha":1049,"x_min":28,"x_max":1024,"o":"m 465 186 l 465 200 l 699 513 l 747 186 l 465 186 m 776 0 l 1024 0 l 932 596 q 922 637 928 613 q 907 683 915 661 q 887 721 899 706 q 861 736 875 736 l 628 736 q 603 726 618 736 q 574 702 589 715 q 547 675 560 689 q 531 653 535 661 l 31 14 l 31 10 q 28 0 31 11 l 615 0 q 646 26 625 4 q 688 75 667 49 q 727 125 710 101 q 747 157 744 149 l 776 0 m 835 924 l 824 954 q 813 983 821 969 q 790 996 806 996 q 751 985 781 996 q 700 926 714 961 q 698 908 696 917 q 703 892 700 900 l 711 860 q 740 828 718 842 q 781 814 761 814 q 796 817 793 814 l 804 822 q 822 838 815 828 q 835 861 829 849 q 838 895 842 881 q 835 924 835 910 "},"á":{"ha":1049,"x_min":28,"x_max":1024,"o":"m 465 186 l 465 200 l 699 513 l 747 186 l 465 186 m 776 0 l 1024 0 l 932 596 q 922 637 928 613 q 907 683 915 661 q 887 721 899 706 q 861 736 875 736 l 628 736 q 603 726 618 736 q 574 702 589 715 q 547 675 560 689 q 531 653 535 661 l 31 14 l 31 10 q 28 0 31 11 l 615 0 q 646 26 625 4 q 688 75 667 49 q 727 125 710 101 q 747 157 744 149 l 776 0 m 743 925 q 719 897 733 911 q 699 863 706 882 q 694 840 694 850 q 700 824 693 829 l 704 818 q 718 815 707 815 q 769 829 738 815 q 821 861 801 843 l 853 893 q 869 910 861 901 q 881 928 878 918 q 871 986 894 963 q 840 997 856 997 q 808 984 825 997 q 776 956 792 971 l 743 925 "},"â":{"ha":1049,"x_min":28,"x_max":1024,"o":"m 465 186 l 465 200 l 699 513 l 747 186 l 465 186 m 776 0 l 1024 0 l 932 596 q 922 637 928 613 q 907 683 915 661 q 887 721 899 706 q 861 736 875 736 l 628 736 q 603 726 618 736 q 574 702 589 715 q 547 675 560 689 q 531 653 535 661 l 31 14 l 31 10 q 28 0 31 11 l 615 0 q 646 26 625 4 q 688 75 667 49 q 727 125 710 101 q 747 157 744 149 l 776 0 m 788 906 l 835 824 l 949 824 l 883 954 q 867 974 878 963 q 846 986 857 986 l 760 986 q 745 980 753 986 q 731 969 738 974 l 582 824 q 708 824 581 822 l 788 906 "},"ã":{"ha":1049,"x_min":28,"x_max":1086,"o":"m 465 186 l 465 200 l 699 513 l 747 186 l 465 186 m 776 0 l 1024 0 l 932 596 q 922 637 928 613 q 907 683 915 661 q 887 721 899 706 q 861 736 875 736 l 628 736 q 603 726 618 736 q 574 702 589 715 q 547 675 560 689 q 531 653 535 661 l 31 14 l 31 10 q 28 0 31 11 l 615 0 q 646 26 625 4 q 688 75 667 49 q 727 125 710 101 q 747 157 744 149 l 776 0 m 879 904 l 833 986 l 719 986 q 704 980 713 986 q 689 969 696 974 l 540 824 l 667 824 l 747 906 l 793 824 l 907 824 q 923 830 914 824 q 938 840 932 836 q 1024 924 993 894 q 1068 967 1054 953 q 1084 983 1082 981 q 1086 986 1086 986 l 960 986 l 879 904 "},"ä":{"ha":1049,"x_min":28,"x_max":1024,"o":"m 465 186 l 465 200 l 699 513 l 747 186 l 465 186 m 776 0 l 1024 0 l 932 596 q 922 637 928 613 q 907 683 915 661 q 887 721 899 706 q 861 736 875 736 l 628 736 q 603 726 618 736 q 574 702 589 715 q 547 675 560 689 q 531 653 535 661 l 31 14 l 31 10 q 28 0 31 11 l 615 0 q 646 26 625 4 q 688 75 667 49 q 727 125 710 101 q 747 157 744 149 l 776 0 m 582 907 q 585 849 569 872 q 639 825 601 825 q 711 849 676 825 q 758 907 746 872 q 753 965 771 942 q 699 989 736 989 q 628 965 661 989 q 582 907 594 942 m 1010 907 q 1006 965 1022 942 q 951 989 989 989 q 880 965 914 989 q 833 907 846 942 q 838 849 821 872 q 892 825 854 825 q 963 849 929 825 q 1010 907 997 872 "},"å":{"ha":1049,"x_min":28,"x_max":1024,"o":"m 465 186 l 465 200 l 699 513 l 747 186 l 465 186 m 776 0 l 1024 0 l 932 596 q 922 637 928 613 q 907 683 915 661 q 887 721 899 706 q 861 736 875 736 l 628 736 q 603 726 618 736 q 574 702 589 715 q 547 675 560 689 q 531 653 535 661 l 31 14 l 31 10 q 28 0 31 11 l 615 0 q 646 26 625 4 q 688 75 667 49 q 727 125 710 101 q 747 157 744 149 l 776 0 m 710 907 q 713 849 697 872 q 767 825 729 825 q 839 849 804 825 q 886 907 874 872 q 881 965 899 942 q 826 989 864 989 q 756 965 789 989 q 710 907 722 942 "},"æ":{"ha":1615,"x_min":28,"x_max":1839,"o":"m 1047 736 l 951 472 l 932 596 q 924 638 931 614 q 908 683 918 661 q 886 721 899 706 q 861 736 874 736 l 628 736 q 603 726 618 736 q 574 702 589 715 q 547 675 560 689 q 531 653 535 661 l 31 14 l 31 10 q 28 0 31 11 l 615 0 q 646 26 625 4 q 688 75 667 49 q 727 125 710 101 q 747 157 744 149 l 776 0 l 1478 0 q 1495 14 1479 0 q 1532 48 1511 28 q 1574 90 1553 68 q 1608 129 1596 113 q 1615 139 1610 131 q 1626 157 1621 147 q 1638 176 1632 167 q 1644 188 1643 185 l 1113 188 l 1143 271 l 1419 271 l 1618 458 l 1297 458 l 1165 331 l 1244 549 l 1672 549 q 1708 571 1683 549 q 1758 624 1732 593 q 1806 685 1783 654 q 1839 736 1829 717 l 1047 736 m 465 200 l 699 513 l 747 186 l 465 186 l 465 200 "},"ç":{"ha":876,"x_min":150,"x_max":1113,"o":"m 150 -161 l 319 -33 l 393 -33 l 415 28 q 320 68 364 43 q 244 131 276 93 q 194 219 213 168 q 176 338 176 271 q 206 475 176 404 q 285 604 235 546 q 400 699 335 663 q 539 736 465 736 l 1113 736 q 1031 637 1072 683 q 942 549 990 590 l 581 549 q 538 537 558 549 q 499 506 517 525 q 468 462 482 486 q 446 414 454 438 q 435 357 435 378 q 449 301 435 331 q 484 246 463 271 q 531 204 506 221 q 581 188 557 188 l 913 188 q 840 91 881 140 q 747 0 800 42 l 636 0 l 603 0 l 588 0 q 571 1 576 0 l 513 -161 l 150 -161 "},"è":{"ha":868,"x_min":39,"x_max":1099,"o":"m 39 0 l 738 0 q 755 14 739 0 q 792 48 771 28 q 834 90 813 68 q 868 129 856 113 q 875 139 869 131 q 886 157 881 147 q 897 176 892 167 q 904 188 903 185 l 372 188 l 403 271 l 679 271 l 878 458 l 557 458 l 425 331 l 504 549 l 932 549 q 967 571 943 549 q 1017 624 992 593 q 1066 685 1043 654 q 1099 736 1089 717 l 307 736 l 39 0 m 764 961 q 753 990 760 976 q 731 1003 746 1003 q 692 992 721 1003 q 640 933 651 969 q 638 915 636 924 q 642 899 639 907 l 651 867 q 680 835 658 849 q 721 821 701 821 q 736 824 725 821 l 744 829 q 763 845 756 835 q 774 868 769 856 q 778 902 781 888 q 775 931 775 917 l 764 961 "},"é":{"ha":868,"x_min":39,"x_max":1099,"o":"m 39 0 l 738 0 q 755 14 739 0 q 792 48 771 28 q 834 90 813 68 q 868 129 856 113 q 875 139 869 131 q 886 157 881 147 q 897 176 892 167 q 904 188 903 185 l 372 188 l 403 271 l 679 271 l 878 458 l 557 458 l 425 331 l 504 549 l 932 549 q 967 571 943 549 q 1017 624 992 593 q 1066 685 1043 654 q 1099 736 1089 717 l 307 736 l 39 0 m 685 932 q 660 903 674 918 q 640 869 647 889 q 635 846 635 860 q 642 831 635 838 l 646 825 q 658 822 649 822 q 682 826 668 822 q 710 837 696 831 q 738 851 725 843 q 761 868 751 860 l 794 900 q 811 917 803 908 q 822 935 819 925 q 813 993 836 969 q 782 1004 797 1004 q 750 991 767 1004 q 718 963 733 978 l 685 932 "},"ê":{"ha":868,"x_min":39,"x_max":1099,"o":"m 39 0 l 738 0 q 755 14 739 0 q 792 48 771 28 q 834 90 813 68 q 868 129 856 113 q 875 139 869 131 q 886 157 881 147 q 897 176 892 167 q 904 188 903 185 l 372 188 l 403 271 l 679 271 l 878 458 l 557 458 l 425 331 l 504 549 l 932 549 q 967 571 943 549 q 1017 624 992 593 q 1066 685 1043 654 q 1099 736 1089 717 l 307 736 l 39 0 m 733 910 l 778 828 l 892 828 l 826 958 q 812 978 821 967 q 792 990 803 990 l 706 990 q 690 984 699 990 q 674 974 681 978 l 525 828 l 651 828 l 733 910 "},"ë":{"ha":868,"x_min":39,"x_max":1099,"o":"m 39 0 l 738 0 q 755 14 739 0 q 792 48 771 28 q 834 90 813 68 q 868 129 856 113 q 875 139 869 131 q 886 157 881 147 q 897 176 892 167 q 904 188 903 185 l 372 188 l 403 271 l 679 271 l 878 458 l 557 458 l 425 331 l 504 549 l 932 549 q 967 571 943 549 q 1017 624 992 593 q 1066 685 1043 654 q 1099 736 1089 717 l 307 736 l 39 0 m 543 907 q 547 849 531 872 q 600 825 563 825 q 672 849 638 825 q 719 907 707 872 q 715 965 732 942 q 660 989 697 989 q 589 965 622 989 q 543 907 556 942 m 971 907 q 967 965 983 942 q 913 989 950 989 q 841 965 875 989 q 794 907 807 942 q 799 849 782 872 q 853 825 815 825 q 924 849 890 825 q 971 907 958 872 "},"ì":{"ha":344,"x_min":39,"x_max":574,"o":"m 544 925 l 533 956 q 523 984 531 971 q 500 997 515 997 q 461 986 490 997 q 410 928 424 963 q 408 910 407 918 q 413 893 410 901 l 422 861 q 450 829 428 843 q 492 815 472 815 q 506 818 503 815 l 515 824 q 533 840 526 829 q 544 863 540 850 q 549 897 551 882 q 544 925 546 911 m 307 736 l 39 0 l 306 0 l 574 736 l 307 736 "},"í":{"ha":344,"x_min":39,"x_max":601,"o":"m 306 0 l 574 736 l 307 736 l 39 0 l 306 0 m 450 928 q 426 899 439 914 q 406 865 413 885 q 400 842 400 856 q 407 826 400 833 l 411 821 q 424 818 414 818 q 447 822 433 818 q 476 833 461 826 q 503 847 490 839 q 526 864 517 856 l 560 896 q 576 913 568 904 q 588 931 585 921 q 578 989 601 965 q 547 1000 563 1000 q 515 987 532 1000 q 483 958 499 974 l 450 928 "},"î":{"ha":344,"x_min":39,"x_max":657,"o":"m 306 0 l 574 736 l 307 736 l 39 0 l 306 0 m 497 908 l 543 826 l 657 826 l 592 957 q 576 977 586 965 q 556 989 567 989 l 469 989 q 453 983 463 989 q 439 972 444 976 l 290 826 l 417 826 l 497 908 "},"ï":{"ha":344,"x_min":39,"x_max":732,"o":"m 306 0 l 574 736 l 307 736 l 39 0 l 306 0 m 292 907 q 295 849 279 872 q 349 825 311 825 q 421 849 386 825 q 468 907 456 872 q 463 965 481 942 q 408 989 446 989 q 338 965 371 989 q 292 907 304 942 m 719 907 q 715 965 732 942 q 661 989 699 989 q 590 965 624 989 q 543 907 556 942 q 547 849 531 872 q 601 825 564 825 q 673 849 639 825 q 719 907 707 872 "},"ð":{"ha":897,"x_min":113,"x_max":1053,"o":"m 138 271 q 116 174 119 222 q 126 86 113 125 q 172 24 140 47 q 254 0 203 0 q 433 15 339 0 q 619 69 526 31 q 799 172 711 107 q 958 338 886 238 q 1031 475 1008 404 q 1045 604 1053 546 q 999 699 1038 663 q 888 736 960 736 l 314 736 q 322 637 315 683 q 349 549 329 590 l 710 549 q 754 522 744 549 q 757 458 764 494 l 379 458 q 233 395 290 443 q 138 271 175 347 m 458 282 l 629 282 q 538 218 582 247 q 463 189 494 189 l 382 189 l 386 242 q 415 266 401 254 q 458 282 428 278 "},"ñ":{"ha":908,"x_min":39,"x_max":1138,"o":"m 306 0 l 456 414 l 533 0 l 869 0 l 1138 736 l 874 736 l 722 322 l 643 736 l 307 736 l 39 0 l 306 0 m 822 904 l 776 986 l 663 986 q 647 980 656 986 q 632 969 639 974 l 483 824 l 610 824 l 690 906 l 736 824 l 850 824 q 866 830 857 824 q 881 840 875 836 q 967 924 936 894 q 1011 967 997 953 q 1027 983 1025 981 q 1029 986 1029 986 l 903 986 l 822 904 "},"ò":{"ha":1001,"x_min":147,"x_max":1122,"o":"m 424 357 q 431 383 425 368 q 443 414 436 397 q 477 462 456 438 q 524 506 499 486 q 574 537 549 525 q 622 549 600 549 l 735 549 q 788 539 767 549 q 822 513 810 529 q 840 477 835 497 q 846 435 846 457 q 845 406 846 419 q 843 379 844 393 q 840 367 843 381 l 835 353 q 819 322 832 342 q 783 274 807 299 q 731 231 758 250 q 678 199 704 211 q 636 188 653 188 l 544 188 q 493 204 517 188 q 453 246 469 221 q 428 301 436 271 q 424 357 419 331 m 1107 399 q 1103 554 1122 490 q 1040 658 1085 618 q 927 717 996 699 q 774 736 858 736 l 590 736 q 444 699 517 736 q 313 604 372 663 q 212 475 253 546 q 161 338 171 404 q 169 172 147 238 q 238 69 190 107 q 357 15 286 31 q 513 0 428 0 l 651 0 q 813 37 735 0 q 952 132 890 74 q 1056 261 1014 190 q 1107 399 1097 332 m 863 958 q 852 987 860 974 q 829 1000 844 1000 q 790 989 819 1000 q 739 931 753 965 q 738 913 736 921 q 742 896 739 904 l 750 864 q 778 832 757 846 q 819 818 800 818 q 835 821 832 818 l 844 826 q 861 842 854 832 q 874 865 868 853 q 877 899 881 885 q 874 928 874 914 l 863 958 "},"ó":{"ha":1001,"x_min":147,"x_max":1122,"o":"m 424 357 q 431 383 425 368 q 443 414 436 397 q 477 462 456 438 q 524 506 499 486 q 574 537 549 525 q 622 549 600 549 l 735 549 q 788 539 767 549 q 822 513 810 529 q 840 477 835 497 q 846 435 846 457 q 845 406 846 419 q 843 379 844 393 q 840 367 843 381 l 835 353 q 819 322 832 342 q 783 274 807 299 q 731 231 758 250 q 678 199 704 211 q 636 188 653 188 l 544 188 q 493 204 517 188 q 453 246 469 221 q 428 301 436 271 q 424 357 419 331 m 1107 399 q 1103 554 1122 490 q 1040 658 1085 618 q 927 717 996 699 q 774 736 858 736 l 590 736 q 444 699 517 736 q 313 604 372 663 q 212 475 253 546 q 161 338 171 404 q 169 172 147 238 q 238 69 190 107 q 357 15 286 31 q 513 0 428 0 l 651 0 q 813 37 735 0 q 952 132 890 74 q 1056 261 1014 190 q 1107 399 1097 332 m 774 928 q 749 899 763 914 q 729 865 736 885 q 724 842 724 856 q 731 826 724 833 l 735 821 q 747 818 738 818 q 771 822 757 818 q 799 833 785 826 q 827 847 814 839 q 850 864 840 856 l 883 896 q 900 913 892 904 q 911 931 908 921 q 901 989 925 965 q 871 1000 886 1000 q 839 987 856 1000 q 807 958 822 974 l 774 928 "},"ô":{"ha":1001,"x_min":147,"x_max":1122,"o":"m 424 357 q 431 383 425 368 q 443 414 436 397 q 477 462 456 438 q 524 506 499 486 q 574 537 549 525 q 622 549 600 549 l 735 549 q 788 539 767 549 q 822 513 810 529 q 840 477 835 497 q 846 435 846 457 q 845 406 846 419 q 843 379 844 393 q 840 367 843 381 l 835 353 q 819 322 832 342 q 783 274 807 299 q 731 231 758 250 q 678 199 704 211 q 636 188 653 188 l 544 188 q 493 204 517 188 q 453 246 469 221 q 428 301 436 271 q 424 357 419 331 m 1107 399 q 1103 554 1122 490 q 1040 658 1085 618 q 927 717 996 699 q 774 736 858 736 l 590 736 q 444 699 517 736 q 313 604 372 663 q 212 475 253 546 q 161 338 171 404 q 169 172 147 238 q 238 69 190 107 q 357 15 286 31 q 513 0 428 0 l 651 0 q 813 37 735 0 q 952 132 890 74 q 1056 261 1014 190 q 1107 399 1097 332 m 806 907 l 850 825 l 964 825 l 899 956 q 884 976 893 964 q 864 988 875 988 l 778 988 q 762 981 771 988 q 746 971 753 975 l 597 825 l 724 825 l 806 907 "},"õ":{"ha":1001,"x_min":156,"x_max":1114,"o":"m 1107 399 q 1112 438 1110 419 q 1114 475 1114 457 q 1089 594 1114 544 q 1019 676 1064 644 q 911 722 974 707 q 774 736 849 736 l 590 736 q 444 699 517 736 q 313 604 372 663 q 212 475 253 546 q 161 338 171 404 l 161 333 q 156 267 156 306 q 183 138 156 189 q 257 56 210 86 q 369 13 304 25 q 513 0 435 0 l 651 0 q 813 37 735 0 q 952 132 890 74 q 1056 261 1014 190 q 1107 399 1097 332 m 424 357 q 431 383 425 368 q 443 414 436 397 q 477 462 456 438 q 524 506 499 486 q 574 537 549 525 q 622 549 600 549 l 735 549 q 791 538 769 549 q 825 510 813 528 q 842 471 838 493 q 846 426 846 449 q 845 402 846 414 q 843 379 844 390 q 840 367 843 381 l 835 353 q 819 322 832 342 q 783 274 807 299 q 731 231 758 250 q 678 199 704 211 q 636 188 653 188 l 544 188 q 497 201 519 188 q 458 238 475 215 q 432 287 442 260 q 422 339 422 314 l 422 347 q 424 357 422 356 m 872 904 l 826 986 l 713 986 q 697 980 706 986 q 682 969 689 974 l 533 824 l 660 824 l 740 906 l 786 824 l 900 824 q 916 830 907 824 q 931 840 925 836 q 1017 924 986 894 q 1061 967 1047 953 q 1077 983 1075 981 q 1079 986 1079 986 l 953 986 l 872 904 "},"ö":{"ha":1001,"x_min":147,"x_max":1122,"o":"m 424 357 q 431 383 425 368 q 443 414 436 397 q 477 462 456 438 q 524 506 499 486 q 574 537 549 525 q 622 549 600 549 l 735 549 q 788 539 767 549 q 822 513 810 529 q 840 477 835 497 q 846 435 846 457 q 845 406 846 419 q 843 379 844 393 q 840 367 843 381 l 835 353 q 819 322 832 342 q 783 274 807 299 q 731 231 758 250 q 678 199 704 211 q 636 188 653 188 l 544 188 q 493 204 517 188 q 453 246 469 221 q 428 301 436 271 q 424 357 419 331 m 1107 399 q 1103 554 1122 490 q 1040 658 1085 618 q 927 717 996 699 q 774 736 858 736 l 590 736 q 444 699 517 736 q 313 604 372 663 q 212 475 253 546 q 161 338 171 404 q 169 172 147 238 q 238 69 190 107 q 357 15 286 31 q 513 0 428 0 l 651 0 q 813 37 735 0 q 952 132 890 74 q 1056 261 1014 190 q 1107 399 1097 332 m 607 907 q 610 849 594 872 q 664 825 626 825 q 736 849 701 825 q 783 907 771 872 q 778 965 796 942 q 724 989 761 989 q 653 965 686 989 q 607 907 619 942 m 1035 907 q 1031 965 1047 942 q 976 989 1014 989 q 905 965 939 989 q 858 907 871 942 q 863 849 846 872 q 917 825 879 825 q 988 849 954 825 q 1035 907 1022 872 "},"÷":{"ha":600,"x_min":124,"x_max":742,"o":"m 124 271 l 543 271 l 742 458 l 322 458 l 124 271 m 438 579 q 441 521 425 544 q 494 497 457 497 q 567 521 532 497 q 614 579 601 544 q 609 638 626 614 q 554 661 592 661 q 483 638 517 661 q 438 579 450 614 m 456 150 q 452 208 468 185 q 399 232 436 232 q 326 208 361 232 q 279 150 292 185 q 284 92 267 115 q 339 68 301 68 q 410 92 376 68 q 456 150 443 115 "},"ø":{"ha":1001,"x_min":147,"x_max":1122,"o":"m 1107 399 q 1103 554 1122 490 q 1040 658 1085 618 q 927 717 996 699 q 774 736 858 736 l 590 736 q 444 699 517 736 q 313 604 372 663 q 212 475 253 546 q 161 338 171 404 q 169 172 147 238 q 238 69 190 107 q 357 15 286 31 q 513 0 428 0 l 651 0 q 813 37 735 0 q 952 132 890 74 q 1056 261 1014 190 q 1107 399 1097 332 m 843 379 q 840 367 843 381 l 835 353 q 819 322 832 342 q 783 274 807 299 q 731 231 758 250 q 678 199 704 211 q 636 188 653 188 l 544 188 q 493 204 515 188 l 843 454 q 843 379 847 414 m 424 357 q 431 383 425 368 q 443 414 436 397 q 477 462 456 438 q 524 506 499 486 q 574 537 549 525 q 622 549 600 549 l 735 549 q 779 542 751 549 l 428 294 q 422 326 424 310 q 424 357 421 342 "},"ù":{"ha":947,"x_min":129,"x_max":1176,"o":"m 197 428 q 174 344 185 381 q 157 272 164 308 q 211 62 129 124 q 488 0 293 0 l 650 0 q 793 26 733 0 q 899 101 853 51 q 981 224 944 151 q 1051 393 1017 297 l 1176 736 l 913 736 l 763 324 q 736 281 753 304 q 697 236 719 257 q 647 201 675 215 q 585 188 618 188 l 517 188 q 447 228 465 188 q 438 335 428 268 q 440 349 438 339 q 456 399 443 360 q 494 516 468 438 q 569 736 521 594 l 307 736 l 197 428 m 838 957 q 826 985 833 972 q 804 999 819 999 q 765 988 794 999 q 713 929 726 964 q 711 911 710 919 q 715 894 713 903 l 725 863 q 753 831 732 844 q 794 817 775 817 q 810 819 799 817 l 818 825 q 836 841 829 831 q 847 864 843 851 q 851 898 854 883 q 849 926 849 913 l 838 957 "},"ú":{"ha":947,"x_min":129,"x_max":1176,"o":"m 197 428 q 174 344 185 381 q 157 272 164 308 q 211 62 129 124 q 488 0 293 0 l 650 0 q 793 26 733 0 q 899 101 853 51 q 981 224 944 151 q 1051 393 1017 297 l 1176 736 l 913 736 l 763 324 q 736 281 753 304 q 697 236 719 257 q 647 201 675 215 q 585 188 618 188 l 517 188 q 447 228 465 188 q 438 335 428 268 q 440 349 438 339 q 456 399 443 360 q 494 516 468 438 q 569 736 521 594 l 307 736 l 197 428 m 756 926 q 731 898 744 913 q 710 864 717 883 q 705 841 706 851 q 711 825 704 831 l 717 819 q 729 817 717 817 q 753 821 739 817 q 781 831 767 825 q 809 846 796 838 q 832 863 822 854 l 864 894 q 881 911 872 903 q 892 929 889 919 q 883 988 906 964 q 853 999 868 999 q 821 985 838 999 q 789 957 804 972 l 756 926 "},"û":{"ha":947,"x_min":129,"x_max":1176,"o":"m 197 428 q 174 344 185 381 q 157 272 164 308 q 211 62 129 124 q 488 0 293 0 l 650 0 q 793 26 733 0 q 899 101 853 51 q 981 224 944 151 q 1051 393 1017 297 l 1176 736 l 913 736 l 763 324 q 736 281 753 304 q 697 236 719 257 q 647 201 675 215 q 585 188 618 188 l 517 188 q 447 228 465 188 q 438 335 428 268 q 440 349 438 339 q 456 399 443 360 q 494 516 468 438 q 569 736 521 594 l 307 736 l 197 428 m 782 907 l 828 825 l 942 825 l 876 956 q 861 976 871 964 q 840 988 851 988 l 754 988 q 739 981 747 988 q 724 971 731 975 l 575 825 l 701 825 l 782 907 "},"ü":{"ha":947,"x_min":129,"x_max":1176,"o":"m 586 906 q 590 847 574 871 q 644 824 607 824 q 716 847 682 824 q 763 906 750 871 q 758 964 775 940 q 704 988 742 988 q 633 964 667 988 q 586 906 599 940 m 197 428 q 174 344 185 381 q 157 272 164 308 q 211 62 129 124 q 488 0 293 0 l 650 0 q 793 26 733 0 q 899 101 853 51 q 981 224 944 151 q 1051 393 1017 297 l 1176 736 l 913 736 l 763 324 q 736 281 753 304 q 697 236 719 257 q 647 201 675 215 q 585 188 618 188 l 517 188 q 447 228 465 188 q 438 335 428 268 q 440 349 438 339 q 456 399 443 360 q 494 516 468 438 q 569 736 521 594 l 307 736 l 197 428 m 1014 906 q 1010 964 1026 940 q 957 988 994 988 q 885 964 919 988 q 838 906 850 940 q 842 847 825 871 q 897 824 860 824 q 968 847 935 824 q 1014 906 1001 871 "},"ý":{"ha":911,"x_min":293,"x_max":1154,"o":"m 450 350 l 322 0 l 589 0 l 717 350 l 1154 736 l 857 736 l 660 563 l 590 736 l 293 736 l 450 350 m 742 926 q 717 898 731 913 q 696 864 703 883 q 691 841 692 851 q 697 825 690 831 l 703 819 q 715 817 703 817 q 739 821 725 817 q 767 831 753 825 q 795 846 782 838 q 818 863 808 854 l 850 894 q 867 911 858 903 q 878 929 875 919 q 869 988 892 964 q 839 999 854 999 q 807 985 824 999 q 775 957 790 972 l 742 926 "},"þ":{"ha":944,"x_min":39,"x_max":1035,"o":"m 39 0 l 306 0 l 351 128 l 742 128 q 840 147 789 128 q 935 202 892 167 q 1006 286 978 238 q 1035 393 1035 335 q 1024 456 1033 421 q 999 523 1015 492 q 956 576 982 554 q 894 597 929 597 l 524 597 l 574 736 l 307 736 l 39 0 m 454 408 l 739 408 q 752 397 742 408 q 767 378 763 385 q 767 375 767 378 q 768 371 768 372 l 765 364 q 760 352 764 360 q 750 336 756 344 q 740 322 744 328 q 733 315 735 315 l 511 315 l 378 197 l 454 408 "},"ÿ":{"ha":911,"x_min":293,"x_max":1154,"o":"m 450 350 l 322 0 l 589 0 l 717 350 l 1154 736 l 857 736 l 660 563 l 590 736 l 293 736 l 450 350 m 575 906 q 579 847 563 871 q 633 824 596 824 q 705 847 671 824 q 751 906 739 871 q 747 964 764 940 q 693 988 731 988 q 622 964 656 988 q 575 906 588 940 m 1003 906 q 999 964 1015 940 q 946 988 983 988 q 874 964 908 988 q 826 906 839 940 q 831 847 814 871 q 886 824 849 824 q 957 847 924 824 q 1003 906 990 871 "}}}
